<svg width="48" height="48" viewBox="0 0 48 48" fill="none" xmlns="http://www.w3.org/2000/svg">
<path d="M24 48C37.2189 48 48 37.2185 48 24C48 10.7811 37.2189 0 24 0C10.7811 0 0 10.7815 0 24C0 37.2185 10.7815 48 24 48Z" fill="#FF757C"/>
<path d="M23.9999 11.9658C35.7314 11.9658 45.2407 21.4755 45.2407 33.2067C45.2407 33.9433 45.203 34.6707 45.1303 35.3878C41.0743 42.897 33.1334 47.9992 23.9999 47.9992C14.8664 47.9992 6.92585 42.8975 2.86985 35.3882C2.79663 34.6711 2.75903 33.9433 2.75903 33.2068C2.75903 21.4752 12.2692 11.9658 23.9999 11.9658Z" fill="#0E7886"/>
<path d="M37.2709 16.6238C41.2208 19.7887 44.0159 24.3339 44.9231 29.5296C44.8589 29.4313 44.7936 29.3022 44.7278 29.1109C44.3129 29.2468 44.2995 29.2581 43.8098 29.3395L43.7881 29.3694C43.5933 29.647 43.7981 29.5297 43.4556 29.8189C43.0482 30.1618 42.7827 30.6299 42.3271 30.9075C42.2721 31.3925 42.3674 31.5016 42.2453 32.0784C42.1977 32.291 41.9595 32.8626 41.6806 32.8193C41.5923 32.8028 41.2182 31.8771 41.1298 31.6211C40.98 31.1856 40.8103 30.8642 40.7016 30.3632C40.6406 30.096 40.5994 29.5842 40.5384 29.4045C40.2461 29.4478 40.2591 29.6335 39.9802 29.4374C39.7831 29.2954 39.8719 29.2088 39.7624 28.9961C39.5316 28.7784 39.2935 28.5606 39.0557 28.3427C38.8717 28.283 38.1646 28.386 37.8649 28.3535C37.328 28.3041 37.2808 28.337 36.9613 27.907C36.3962 27.9348 36.4442 28.1465 35.893 27.6728C35.5327 27.3679 35.6007 26.8778 35.0772 27.1554C35.0573 27.6018 35.2746 27.7005 35.4717 27.907C35.6142 28.0651 35.7913 28.1738 35.8657 28.3859C35.8726 28.392 35.9068 28.5929 35.9138 28.6202C36.4239 28.6531 36.5459 28.4084 36.8248 28.2015C37.0972 28.457 36.8318 28.5011 37.2263 28.702C37.5389 28.8605 37.4779 28.7679 37.6813 29.0233C37.7835 29.3663 36.9816 30.2977 36.7157 30.4665C36.5118 30.5973 36.4035 30.5211 36.2195 30.6727C35.9475 30.9022 36.2537 30.8693 35.7778 31.0434C35.2678 31.2287 34.7641 31.6206 34.2272 31.6535C34.1116 31.337 33.996 31.0165 33.8803 30.6953C33.54 29.6006 33.5538 30.0254 33.2066 29.459C33.0433 29.2134 33.1113 29.0559 33.0027 28.8381C32.9273 28.6749 32.8125 28.6038 32.71 28.4029C32.5537 28.0924 32.3705 27.6079 32.0098 27.6568C31.9348 27.9015 32.3428 28.7294 32.4445 28.9307C32.5467 29.1324 32.7099 29.2195 32.7575 29.5083C32.8255 29.9053 32.7441 29.856 32.9614 30.1227C33.4174 30.6722 32.9411 30.5748 33.6486 31.1135C34.1786 31.5171 34.0431 31.6365 34.2673 32.176C34.6142 32.2734 35.6478 31.8114 35.824 31.9474C36.0348 32.3228 35.5798 32.9216 35.4642 33.2485C35.0831 34.3432 34.4167 34.3271 33.9066 35.1654C33.6282 35.618 33.4987 35.6777 33.2402 36.2224C32.9475 36.8377 33.8317 38.542 33.3017 39.256C33.1861 39.4189 32.812 39.5171 32.343 40.013C31.8463 40.5517 32.3564 40.4594 32.1659 41.3574C32.0166 41.5644 31.8329 41.5752 31.6494 41.7229C31.5814 41.9347 31.636 42.103 31.5199 42.3651C31.3974 42.6807 31.3774 42.5119 31.1999 42.7682C31.0709 42.9691 31.0847 43.0509 30.9349 43.2363C30.8059 43.4056 30.7375 43.4537 30.6158 43.5632C30.0238 44.1079 28.7521 44.1239 28.6435 44.0477C28.3438 43.7922 28.5482 43.7268 28.4737 43.3674C28.4009 43.0513 28.2334 42.7868 28.0935 42.543L28.0793 42.5179C28.0117 42.3984 27.9503 42.2836 27.9161 42.1745C27.671 41.4011 27.7598 40.814 27.3315 40.0294C26.7942 39.0161 27.6303 38.4883 27.5961 37.9163C27.5827 37.7638 27.5285 37.6712 27.5143 37.5512C27.4125 36.9194 27.3519 36.3534 26.9301 35.8577C26.4673 35.319 26.5287 35.5091 26.6781 34.6219C26.8682 33.6035 26.4334 33.8646 25.8211 33.8377C25.5215 32.9124 24.9365 33.3635 24.352 33.6363C23.9844 33.8048 23.8488 33.5874 23.4336 33.6471C22.5087 33.7722 23.2365 34.1701 21.9986 33.1898C21.4815 32.7811 21.8284 32.9881 21.5227 32.4762C21.421 32.2909 21.1078 32.0463 20.9645 31.8605C20.4956 31.2725 21.0533 30.6788 20.9714 30.0038C20.8286 28.7511 20.6246 29.8401 21.3253 28.3263C21.6928 27.5204 22.2502 27.5153 22.3935 27.1554C22.5161 26.8345 22.4342 26.6055 22.6655 26.3115C22.8694 26.0721 23.1622 26.121 23.2778 25.7452C23.441 25.2823 23.128 25.223 22.788 25.2113C22.6455 24.7268 22.6455 24.8462 22.7538 24.3998C22.8153 24.1491 22.7608 24.0291 22.8153 23.7789C22.9513 23.1527 24.0191 23.7737 24.3253 23.5173C24.4678 23.2506 24.4885 22.9895 24.3253 22.7331C24.1546 22.4771 23.9308 22.5097 23.8152 22.265C24.0736 22.0909 23.8831 22.2433 24.1075 22.194C24.3725 22.1343 24.3383 22.0576 24.6513 21.9983C24.9306 21.9432 25.1077 21.6878 25.3792 21.5138C25.7668 21.2631 25.5831 21.0392 26.0525 20.9638C26.8073 20.8327 26.3175 20.8547 26.3998 20.1519C26.515 20.1086 26.6236 20.0588 26.7323 20.0104C26.9704 20.3209 26.6713 20.1957 26.9566 20.4023C27.0315 20.3589 27.1198 20.3156 27.2017 20.2723C27.1605 19.9342 27.0046 19.9995 26.9024 19.5808C26.5283 19.6405 26.3923 19.9562 26.0932 19.8419C25.8009 19.7333 25.7871 19.3136 25.8009 18.9651C25.9095 18.704 26.4534 18.5624 26.6638 18.4966C27.0046 18.3823 26.9565 18.1537 27.2692 17.8428C27.6775 17.4345 27.3778 17.8484 27.5753 17.3206C28.0243 17.3037 27.8134 17.2877 28.0784 17.1518L28.0918 17.1466L28.1191 17.1353C28.2759 17.0644 28.4798 17.0484 28.6838 16.9778C29.4316 16.7274 29.7377 16.8526 30.2816 17.0752C30.7033 17.2496 31.9751 17.2549 32.0703 17.7892C31.7646 18.1096 31.4723 17.8758 31.0298 17.9034C31.1112 18.317 31.145 18.317 31.5195 18.4313C31.581 18.2351 31.4923 18.3117 31.5944 18.1862C31.717 18.2135 31.8395 18.2351 31.9617 18.2576C32.0847 17.838 32.2271 17.8982 32.6424 17.8489C32.5739 17.56 32.499 17.6419 32.6554 17.4133C33.0845 17.4575 32.7373 17.4194 32.9481 17.7624C33.2473 17.7238 33.54 17.3917 33.9544 17.3484C34.2129 17.3211 34.1995 17.4193 34.5662 17.3808C34.8655 17.3483 34.8516 17.2392 35.1517 17.3648C35.26 17.163 35.1517 17.1682 35.4167 17.1197C35.8242 17.0487 36.1783 17.2989 36.5725 17.354C36.2806 16.995 36.0013 17.0651 36.362 16.4663C36.8175 16.3737 36.8582 16.4391 37.0557 16.7825C37.1674 16.7197 37.2155 16.6558 37.2709 16.6238ZM14.3963 45.9999C13.6888 45.6908 12.9994 45.3483 12.3296 44.975C12.3213 44.9472 12.314 44.9169 12.3074 44.8819C12.2057 44.277 12.4642 44.2116 12.178 43.2039C11.9905 42.5376 12.0658 40.9588 11.8675 40.1495C11.8359 40.0205 11.7969 39.9109 11.7497 39.8274C11.5662 39.5229 11.1171 39.3814 10.7573 39.1359C10.7365 39.1311 10.7231 39.1251 10.7166 39.1142C10.2199 38.7656 9.7506 37.3986 9.3561 36.8873C9.17291 36.6417 9.05732 36.7504 8.97547 36.3642C8.88716 36.0104 9.0231 36.0706 9.13916 35.7758C8.53382 34.6651 9.92113 34.6811 9.63585 33.347C9.57435 33.1019 9.3981 32.759 9.24829 32.6507C8.96254 32.7759 9.098 32.846 8.94866 33.0859C8.71785 32.9551 8.48666 32.8239 8.26232 32.694C7.56172 32.0185 7.93541 32.5083 7.73882 32.0675C7.31704 31.1417 6.91522 31.6596 6.41207 31.2019C6.18735 31.0109 6.14666 30.7113 5.77297 30.7663C5.20832 30.8425 5.52097 30.9295 4.93644 30.6567C4.43975 30.4224 3.92319 30.1506 3.57594 29.8344C3.56254 29.3443 3.73963 29.3222 3.43344 28.8654C3.37935 28.7805 3.31822 28.7017 3.25635 28.6263C4.21325 24.2724 6.50479 20.4194 9.68132 17.5183C9.92816 17.6045 10.2546 17.5478 10.4997 17.5378C10.5876 17.3746 10.6422 17.2326 10.7989 17.1728C10.8599 17.1511 10.9348 17.1459 11.0367 17.1511C11.0501 17.2321 11.0709 17.3143 11.0912 17.3958C11.0912 17.4019 11.1051 17.456 11.0982 17.4452C11.1051 17.4339 11.1116 17.4776 11.118 17.4937C11.5471 17.2433 11.1865 17.2377 11.4173 16.7857C11.057 16.7147 11.1046 16.7579 10.8799 16.5293C11.0982 16.2899 11.519 16.2081 11.8321 16.2301C11.8113 16.4483 11.7096 16.4427 11.7918 16.6276C12.0365 16.4752 12.2067 16.0673 12.6007 16.1431C12.6756 16.1972 12.7644 16.2466 12.8458 16.2955C12.6414 16.486 12.3357 16.4973 12.0706 16.606C11.9546 17.7881 12.4448 16.797 12.2811 17.6084C12.5734 17.5868 12.8592 17.3741 12.9678 17.1563C12.8592 17.0148 12.7024 17.0148 12.6145 16.8459C12.6829 16.6281 12.8293 16.4631 13.0363 16.3648C13.1761 16.2985 13.3433 16.2631 13.5329 16.2631C15.6954 16.2796 14.6683 16.3774 15.3351 16.6827C15.4844 16.7477 15.7495 16.781 15.8383 16.9114C15.9742 17.1184 15.8452 17.314 16.0626 17.4777C16.2531 17.6193 16.2804 17.4721 16.532 17.7886C16.4779 17.9679 16.3484 18.1532 16.0834 18.1588C15.7162 18.164 15.9336 17.9133 15.5391 17.9518C15.5465 18.3216 15.9133 18.4636 15.5728 18.665C15.2736 18.8451 15.4637 18.6 15.2398 18.7252C15.2329 18.7308 15.2126 18.7417 15.2061 18.7473C15.1927 18.7581 15.1788 18.7746 15.1719 18.7853C15.1316 18.829 15.097 18.8672 15.0636 18.9057C14.5198 18.7581 14.6219 18.8239 14.295 18.4644C14.173 18.3285 14.1525 18.2956 13.9348 18.312C13.7988 18.3172 13.6221 18.377 13.4926 18.2574C13.758 17.9253 13.8875 18.2467 14.2751 18.0501C14.343 18.0172 14.7713 17.6855 14.8397 17.6088C14.7241 17.3472 14.8258 17.5646 14.6565 17.3962C14.2754 17.0099 14.1659 17.1073 13.6502 17.1073C13.4082 17.3858 13.2271 17.73 12.9635 17.8811C12.8041 17.9725 12.6149 17.9933 12.3646 17.8863C12.4802 18.3548 12.7795 17.9954 12.8063 18.5614C12.6092 18.5233 12.507 18.425 12.3031 18.496C11.8676 18.6593 12.2555 18.6429 12.2893 18.7303C12.2893 18.7359 12.4932 18.7576 12.2893 18.8338C12.0645 18.9152 12.255 18.7901 11.8203 18.5342C11.8813 18.4255 11.9428 18.3112 12.0039 18.1969C11.6505 18.306 11.208 18.4801 10.7937 18.6814C10.3239 18.9157 9.88213 19.1828 9.61672 19.4274C9.60979 19.8362 9.68469 19.5634 9.72585 20.0488C10.358 20.0865 10.1541 20.2765 10.7867 20.4567C10.9084 20.4901 11.0655 20.5225 11.2561 20.555C11.2561 20.8602 10.9838 21.0889 11.1738 21.405C11.6159 21.7146 11.6293 21.1105 11.7385 20.7243C13.2354 20.4116 12.514 19.9718 12.9007 19.1482C12.9587 19.0252 13.0409 18.894 13.1596 18.7524C13.2748 18.758 13.7442 18.8074 13.8463 18.8286C14.1867 18.8883 14.0031 18.9701 14.3703 19.1334C14.3634 19.4279 14.214 19.8089 14.6491 19.7383C14.9825 19.679 14.9081 19.417 15.3155 19.3516C15.4987 19.782 15.4514 19.9673 15.5329 20.4844C16.5124 20.8658 16.0768 21.1759 15.8863 21.89C16.0093 21.9497 16.1379 22.0043 16.2673 22.0584C16.2609 22.2654 16.2535 22.4672 16.247 22.6689C16.2267 22.6689 15.1992 22.4451 15.1316 22.4239C15.2878 21.977 15.5737 21.9718 15.7573 21.5146C15.39 21.5796 15.4169 21.6938 15.1519 21.7757C14.9142 21.8467 14.7306 21.7973 14.479 21.8303C14.3907 22.1239 14.472 21.5739 14.4998 21.9493C14.5132 22.0914 14.5816 21.9554 14.4859 22.1074C14.1456 21.9493 14.2616 21.5791 13.6289 21.922C13.7718 21.9874 13.9143 22.0472 14.0641 22.1074C14.0443 22.5261 14.01 22.2104 13.9216 22.4885C13.7038 23.2016 14.5131 22.7604 14.724 22.7228C14.6695 23.0986 14.4383 23.0986 14.1118 23.2016C13.7519 23.3108 13.6428 23.4579 13.357 23.5234C13.357 23.0765 13.2894 23.4524 13.486 23.1423C13.2002 23.1691 12.9893 23.2999 12.7174 23.4146L12.6906 23.425C12.3412 23.5675 12.2883 23.5887 12.2481 24.0352C11.9488 24.1274 11.6021 24.2318 11.3911 24.4495C11.1807 24.6509 10.9693 24.8518 10.765 25.0479C10.7451 25.0644 10.7308 25.0809 10.7182 25.0917C10.7931 25.6524 10.7182 25.6633 10.3774 25.8819C10.092 26.0664 9.99679 26.0612 9.73175 26.2955C8.88172 27.058 9.2901 26.7034 9.33688 28.0163C9.16025 27.9622 8.99047 27.902 8.82725 27.8422C8.69778 26.9705 8.87441 27.2598 8.17428 27.0579C7.41913 26.8402 7.52085 27.2104 7.20829 27.2757C6.86141 27.3515 6.69125 26.9596 6.1881 27.2865C5.90966 27.4766 5.64425 27.6022 5.57628 27.9395C5.49491 28.3482 5.31125 28.647 5.33816 29.0995C5.38625 30.3254 6.50122 30.3955 6.78697 29.8239C6.9771 29.4429 6.92985 29.2359 7.5486 29.3338C7.60963 29.6607 7.51438 29.9002 7.43254 30.1509C7.37844 30.2978 7.22863 30.5645 7.30353 30.7667C7.74566 30.9464 7.75907 30.6083 8.34407 30.9568C8.38522 31.5392 8.07904 32.1926 8.52763 32.5304C8.87404 32.7864 8.89485 32.5577 9.20057 32.5036C9.54088 32.4439 9.47985 32.656 9.79288 32.7054C9.9695 32.4871 9.8946 32.624 10.0107 32.3563C10.2146 31.8943 10.2688 32.1116 10.7519 31.8289C10.7991 31.8016 10.8399 31.7739 10.8879 31.7414C10.942 31.8557 11.0035 31.9648 11.0572 32.0736C11.411 31.6544 11.4517 32.0628 11.86 32.1771C12.0358 32.2252 12.1604 32.2424 12.257 32.2437C12.5536 32.248 12.5839 32.1039 12.9888 32.2472C13.0369 32.2697 13.0979 32.2857 13.1525 32.3022C13.159 32.3022 13.1793 32.313 13.1793 32.3244C13.1867 32.33 13.2066 32.346 13.2135 32.3521C13.2815 32.4279 13.2889 32.5045 13.343 32.5859C13.6218 32.8526 13.9007 33.1198 14.1727 33.3809C14.7096 33.5935 14.7096 33.1956 15.3219 33.7888C15.5803 34.0339 15.4644 34.0291 15.6073 34.3444C15.6281 34.3938 15.6688 34.4423 15.6956 34.5024C15.7501 34.6496 15.8112 34.7908 15.8727 34.9324C16.1511 35.2974 16.5321 35.0688 16.9197 35.4446C17.144 35.6624 16.9742 35.5971 17.4704 35.6841C18.239 35.8092 17.9402 35.7386 18.5248 36.1798C18.7492 36.343 18.8033 36.2504 19.0141 36.392C19.3068 36.8003 19.2319 37.2415 18.9873 37.601C18.2322 38.7009 18.4906 38.5211 18.4564 39.3927C18.4291 39.8933 18.2863 40.9282 17.8168 41.0533C16.1103 41.5331 17.1028 41.8652 16.6543 42.7091C16.5253 42.949 16.4295 43.0088 16.3482 43.1997C16.0087 43.9943 16.2464 44.2614 15.2397 44.0817C15.3354 44.2502 15.2739 44.1358 15.3691 44.2883C15.6684 44.7511 15.716 45.1001 15.1037 45.2136C14.5936 45.3118 14.8114 45.2136 14.7638 45.7799C14.5663 45.8618 14.478 45.7799 14.3489 45.9107L14.3963 45.9999ZM9.91419 17.31C10.0458 17.2927 10.0453 17.2356 10.3901 17.1519C10.3628 17.0377 10.342 17.0377 10.3152 16.9944L10.3044 16.9727C10.1732 17.0835 10.0428 17.1961 9.91419 17.31ZM28.0924 23.6251L28.079 23.6155C28.0314 23.5831 27.9841 23.5506 27.9434 23.5125C27.6442 23.2453 27.5823 23.0064 27.2498 23.0661C27.2424 23.3168 27.2771 23.3272 27.3991 23.4908C27.8616 24.0681 27.7187 23.8723 28.0789 24.0845L28.0923 24.0923C28.1776 24.1412 28.2763 24.2096 28.4119 24.3079C27.9494 24.7153 28.3782 24.7591 28.0923 24.8955L28.0789 24.902C28.0512 24.9124 28.0248 24.9236 28.0045 24.9344C27.9088 24.6945 28.1197 24.8093 27.875 24.4607C27.7391 24.281 27.61 24.2264 27.3991 24.1277C26.8682 23.8774 26.9367 23.6817 26.6102 23.3547C26.2426 23.366 26.3248 23.4803 26.0664 23.611C25.7537 23.763 25.8013 23.5842 25.4338 23.6162C25.1345 24.1449 25.5628 23.7037 25.0189 24.1392C24.3659 24.6454 24.9033 25.1737 23.8563 25.3322C23.7814 25.343 23.7541 25.3322 23.6797 25.359C23.4818 25.4296 23.5974 25.3698 23.4818 25.4842C23.5706 25.6915 23.448 25.6583 23.8018 25.7076C24.4478 25.7942 24.5296 25.3971 24.999 25.2988C25.2298 25.2499 26.6787 25.1897 26.7805 25.217C27.0931 25.566 26.835 25.8111 26.835 26.1047C27.1758 26.2844 27.6582 26.3281 27.8556 26.5134C28.0799 26.7256 27.9712 26.6927 28.0799 26.7308L28.0933 26.7352C28.1345 26.7469 28.1938 26.7681 28.2977 26.8074C28.5697 26.8997 28.5558 26.9543 28.848 26.9759C29.1134 26.0882 28.8411 26.1809 30.1198 26.5888C31.4526 27.0253 30.8541 26.6274 31.4188 26.6871C31.698 26.7148 31.6231 26.8014 32.0107 26.7524C32.0851 26.6 32.6359 25.2165 31.9219 25.3911C31.7111 25.4452 31.8543 25.5214 31.5547 25.4452C31.242 25.3642 31.5413 25.304 31.1949 25.3525C30.8541 25.4019 30.4467 25.7016 30.1812 24.6723C30.0794 24.3016 29.8954 23.9808 29.4741 24.541C29.5828 24.7315 29.6577 24.748 29.7798 24.9334C29.7461 24.9875 29.6305 25.1239 29.5897 25.1677C29.3589 25.3963 29.6854 25.2876 29.3109 25.3361C29.107 25.1837 29.148 24.9876 28.9506 24.7156C28.6037 24.2085 28.8281 24.4433 28.6513 23.9583C28.5123 23.8362 28.2808 23.745 28.0924 23.6251ZM35.3557 38.2863C35.0569 38.4387 35.0158 38.7878 34.7915 38.9834C34.5468 39.2068 34.2199 39.1038 34.1251 39.5173C34.0026 40.0344 34.329 39.8768 33.9688 40.5518C33.8398 40.8021 33.8329 41.4281 34.0303 41.6139C34.6214 42.1851 34.9414 40.7427 35.0773 40.2907C35.1795 39.9694 35.2748 39.6048 35.3834 39.3047C35.4921 38.9835 35.6485 38.7008 35.3557 38.2863ZM34.3767 23.0924C34.4243 23.7575 34.8183 24.013 35.0976 24.3178C35.0638 24.6339 34.9885 24.5521 34.9954 24.9929C35.3288 25.2332 35.573 25.3796 36.0091 25.2605C36.0702 24.7266 35.9 24.7534 35.7372 24.3888C35.7644 24.3451 35.8389 24.2909 35.8524 24.2801C35.9754 24.1169 35.9139 24.3451 35.9754 24.0675C35.6558 23.9645 35.1388 23.6371 35.0985 23.2075C35.2548 23.0824 35.2072 23.1581 35.3224 23.0824C35.574 22.9187 35.3839 23.169 35.5333 22.8914C35.4043 22.6411 35.2613 22.5974 34.9487 22.7226C34.8128 22.7771 34.4516 23.0327 34.3767 23.0924ZM31.595 23.267C31.3845 22.9733 31.3976 22.8257 30.9897 22.8149C30.8268 22.9894 30.6363 23.2505 30.548 23.5173C30.4121 23.9204 30.5073 23.6424 30.5207 24.0785C30.5138 24.0945 30.5207 24.117 30.5207 24.133C30.5138 24.3941 30.4523 24.0836 30.4934 24.3235C30.8134 24.2577 30.5688 24.2633 30.8069 24.1871C31.0313 24.1109 31.718 23.9039 31.9154 23.9533C32.3844 24.062 32.7789 24.4327 33.3097 24.062C33.2819 23.5883 32.7108 23.4085 32.3164 23.2012C32.3372 22.766 32.4523 23.1089 32.4251 22.6894C32.2891 22.6838 32.2073 22.6621 32.0782 22.7167C31.7721 22.8526 31.9423 22.8911 31.9423 22.9401C31.9557 23.1739 32.2483 22.8911 31.9358 23.18C31.8475 23.2557 31.7037 23.2557 31.595 23.267ZM23.6515 19.967C23.6384 20.7295 23.9035 20.4731 24.1546 20.8494C24.0394 21.1707 24.0187 20.9204 23.8901 21.2521C23.7745 21.5301 23.9169 21.2799 23.842 21.7639C24.0394 21.7751 24.3317 21.7045 24.5902 21.6825C24.9578 21.6496 24.9505 21.6172 25.0799 21.2412C24.876 20.9909 24.672 20.7402 24.4612 20.4899C24.1953 20.0863 24.4612 20.3644 24.3798 20.0266C24.3188 19.9067 24.2638 19.7875 24.2097 19.6672C23.8558 19.7877 23.8901 19.7548 23.6515 19.967Z" fill="#15BDB1"/>
<path d="M37.0929 18.6167L36.8872 18.411L36.0394 17.5631L35.8337 17.3574C35.1647 17.6112 34.3272 18.708 33.9968 19.4L34.0995 19.503L34.9474 20.3509L35.0504 20.4539C35.7424 20.123 36.8391 19.286 37.0929 18.617V18.6167Z" fill="#FBB429"/>
<path d="M38.5126 22.6479L38.3069 22.4422L37.459 21.5944L37.2533 21.3887C36.5843 21.6425 35.7469 22.7392 35.4165 23.4312L35.5195 23.5342L36.3674 24.3821L36.4704 24.4852C37.1624 24.1543 38.2592 23.3173 38.513 22.6479H38.5126Z" fill="#FBB429"/>
<path d="M38.5127 22.6483L38.307 22.4431L37.4591 21.5949L37.2535 21.3896C37.0989 21.4481 36.936 21.5516 36.7715 21.685L38.2173 23.1308C38.3502 22.9666 38.4541 22.8034 38.5126 22.6488V22.6483H38.5127Z" fill="white"/>
<path d="M22.9057 7.04297L23.1114 7.24866L23.9597 8.09653L24.1649 8.30222C24.1064 8.45681 24.003 8.62003 23.87 8.78419L22.4238 7.33828C22.5879 7.20487 22.7511 7.10138 22.9057 7.04297Z" fill="white"/>
<path d="M19.8942 26.1555L22.3819 29.6923L23.1752 28.7331L21.7674 25.014C21.944 24.8615 21.612 25.1638 22.3385 24.51C23.0651 23.8561 26.2578 20.9212 29.1494 18.5703L37.4775 30.343L38.2369 29.5835L33.6336 14.9101C35.5151 13.3591 36.9708 12.122 37.3631 11.6738C38.5621 10.3037 39.6467 8.47645 38.7907 6.76391C37.0777 5.90741 35.2509 6.99257 33.8808 8.19107C33.4322 8.58341 32.1956 10.0392 30.6445 11.9205L15.9711 7.31741L15.2117 8.07688L26.9839 16.405C24.6335 19.2971 21.6982 22.4892 21.0448 23.2158C20.3905 23.9424 20.6932 23.6103 20.5408 23.787L16.8216 22.3792L15.8625 23.1725L19.3993 25.6602C19.0152 26.3209 19.2339 26.5396 19.8947 26.1556H19.8942V26.1555Z" fill="white"/>
<path d="M19.894 26.1571L22.3817 29.6939L22.573 29.4627L20.1616 25.9727L19.8944 26.1572H19.894V26.1571Z" fill="#C8CACC"/>
<path d="M16.0932 22.9814L15.8621 23.1729L19.3989 25.6606L19.5834 25.3934L16.0929 22.9814H16.0932Z" fill="#C8CACC"/>
<path d="M29.1497 18.5714L37.4778 30.344L37.7704 30.0509L29.6416 18.1699L29.1497 18.5714Z" fill="#C8CACC"/>
<path d="M15.5039 7.78516L15.2112 8.07831L26.9835 16.4064L27.3849 15.9145L15.5034 7.78562L15.5039 7.78516Z" fill="#C8CACC"/>
<path d="M17.3295 28.4619L17.3325 28.4589L17.3828 28.4104L17.4325 28.3623L17.4832 28.3134L17.5338 28.2645L17.5844 28.2155L17.6355 28.1661L17.6866 28.1167L17.7382 28.0673L17.7901 28.0175L17.8417 27.9678L17.8936 27.9175L17.9455 27.8669L17.9979 27.8162L18.0504 27.7652L18.1031 27.7141L18.1564 27.663L18.2096 27.6114L18.2629 27.5598L18.3166 27.5079L18.3703 27.4555L18.4244 27.4031L18.4785 27.3507L18.5326 27.2978L18.5872 27.2446L18.6417 27.1913L18.6968 27.1376L18.7518 27.0839L18.8072 27.0298L18.8626 26.9752L18.918 26.9207L18.6084 26.6055L18.553 26.6596L18.498 26.7137L18.443 26.7674L18.3879 26.8215L18.3334 26.8747L18.2793 26.928L18.2252 26.9808L18.1711 27.0336L18.1174 27.086L18.0637 27.138L18.0099 27.1899L17.9567 27.2418L17.9034 27.2934L17.8502 27.345L17.7974 27.3961L17.7446 27.4472L17.6922 27.4978L17.6398 27.548L17.5879 27.5987L17.5359 27.6489L17.484 27.6987L17.4324 27.7485L17.3809 27.7979L17.3298 27.8473L17.2787 27.8962L17.2276 27.9452L17.177 27.9941L17.1267 28.0426L17.0765 28.0915L17.0262 28.1396L17.0232 28.1426L17.3298 28.4609L17.3295 28.4619ZM42.0864 28.2796L42.0339 28.4164L41.9815 28.5515L41.9291 28.6845L41.8767 28.8152L41.8239 28.9442L41.7711 29.0711L41.7183 29.1962L41.6655 29.3192L41.6126 29.4405L41.5594 29.5595L41.5066 29.6773L41.4534 29.7929L41.4001 29.9063L41.3469 30.0181L41.3442 30.0232L41.7413 30.2177L41.7452 30.2099L41.7998 30.0951L41.8543 29.9787L41.9084 29.8605L41.963 29.7406L42.0171 29.6189L42.0712 29.495L42.1253 29.3695L42.179 29.2417L42.2327 29.1127L42.2868 28.9811L42.34 28.8477L42.3938 28.7126L42.447 28.5753L42.5003 28.4359L42.0872 28.2792L42.0864 28.2796ZM40.728 31.1764L40.7007 31.2214L40.6466 31.3106L40.5925 31.3981L40.5384 31.4842L40.4839 31.5682L40.4293 31.6505L40.3748 31.7315L40.3202 31.8107L40.2656 31.8887L40.2111 31.9649L40.1565 32.0398L40.1015 32.113L40.0469 32.1849L39.9919 32.255L39.9369 32.3238L39.8814 32.3914L39.8264 32.4573L39.7714 32.5217L39.7164 32.5846L39.6609 32.6464L39.6059 32.7066L39.5505 32.7655L39.4951 32.8231L39.4397 32.8793L39.4301 32.8889L39.7397 33.2045L39.7531 33.1911L39.8124 33.1309L39.8713 33.0694L39.9302 33.0066L39.9891 32.9425L40.0476 32.8772L40.1061 32.8105L40.1641 32.7421L40.2221 32.6723L40.2802 32.6009L40.3382 32.5286L40.3958 32.4545L40.4533 32.3792L40.5109 32.3025L40.5681 32.2241L40.6253 32.144L40.6824 32.0627L40.7392 31.9795L40.7964 31.895L40.8526 31.8089L40.9093 31.7214L40.9656 31.6322L41.0223 31.5413L41.0785 31.4487L41.1054 31.4032L40.7265 31.1755L40.728 31.1764ZM38.4357 33.6836L38.4344 33.6844L38.3777 33.7187L38.321 33.752L38.2643 33.7841L38.2075 33.8153L38.1504 33.8456L38.0936 33.8746L38.0364 33.9032L37.9793 33.9304L37.9221 33.9569L37.8649 33.9825L37.8073 34.0071L37.7498 34.0309L37.6922 34.0539L37.6346 34.0764L37.5766 34.0976L37.5186 34.1184L37.4605 34.1383L37.4025 34.1573L37.344 34.176L37.2855 34.1933L37.2266 34.2102L37.1681 34.2267L37.1093 34.2419L37.0504 34.2566L36.991 34.2705L36.9317 34.2839L36.8724 34.2964L36.8126 34.3085L36.7529 34.3198L36.6932 34.3306L36.633 34.341L36.5728 34.3505L36.5126 34.3596L36.452 34.3682L36.4485 34.3687L36.5048 34.8074L36.5122 34.8061L36.5771 34.797L36.6416 34.7874L36.7058 34.777L36.7703 34.7662L36.8348 34.7545L36.8993 34.7424L36.9634 34.7294L37.0275 34.7155L37.0912 34.7012L37.1553 34.6861L37.2194 34.67L37.2835 34.6532L37.3477 34.6358L37.4109 34.6176L37.4745 34.5986L37.5377 34.5787L37.6009 34.5579L37.6645 34.5362L37.7277 34.5137L37.7905 34.4904L37.8537 34.4661L37.9165 34.441L37.9794 34.415L38.0422 34.3877L38.105 34.3596L38.1673 34.3307L38.2297 34.3007L38.292 34.27L38.3544 34.2379L38.4167 34.205L38.4786 34.1708L38.5404 34.1357L38.6023 34.0998L38.6638 34.0626L38.6651 34.0618L38.4343 33.6851L38.4357 33.6836ZM35.1552 34.4426H35.1478L35.0842 34.4421L35.02 34.4413L34.9559 34.4404L34.8914 34.4391L34.8269 34.4378L34.7624 34.4361L34.6974 34.4344L34.6325 34.4323L34.5671 34.4301L34.5018 34.428L34.4364 34.4258L34.3711 34.4232L34.3053 34.4206L34.239 34.4184L34.1727 34.4158L34.1064 34.4132L34.0402 34.4102L33.9739 34.4075L33.9072 34.4049L33.8406 34.4023L33.7734 34.3997L33.7063 34.397L33.6392 34.3944L33.5716 34.3918L33.504 34.3892L33.436 34.3865L33.3681 34.3844L33.3001 34.3822L33.2317 34.3801L33.1632 34.3779L33.0948 34.3762L33.026 34.3745L32.9572 34.3732L32.9502 34.3727L32.9424 34.8149H32.9485L33.0161 34.8162L33.0837 34.8179L33.1513 34.8196L33.2184 34.8217L33.286 34.8239L33.3536 34.826L33.4208 34.8282L33.4879 34.8308L33.555 34.8334L33.6221 34.8361L33.6888 34.8387L33.7554 34.8413L33.8221 34.8439L33.8888 34.8466L33.9554 34.8492L34.0221 34.8518L34.0887 34.8544L34.1554 34.8571L34.222 34.8597L34.2883 34.8623L34.3546 34.8649L34.4213 34.8676L34.4871 34.8697L34.5534 34.8719L34.6196 34.874L34.6859 34.8757L34.7522 34.8774L34.8185 34.8791L34.8843 34.8804L34.9501 34.8817L35.0159 34.8826L35.0817 34.8834L35.1475 34.8839H35.1549L35.1566 34.4418L35.1552 34.4426ZM31.6028 34.4032L31.5456 34.4075L31.4737 34.4136L31.4009 34.4201L31.329 34.427L31.2563 34.4344L31.1835 34.4427L31.1108 34.4513L31.038 34.4604L30.9648 34.47L30.8916 34.4807L30.818 34.492L30.7444 34.5041L30.6708 34.5162L30.5972 34.5296L30.5231 34.5435L30.4491 34.5577L30.3746 34.5729L30.3002 34.5889L30.2258 34.6058L30.1509 34.6235L30.0759 34.6422L30.0006 34.6612L29.9257 34.6807L29.8503 34.7015L29.7749 34.7232L29.6995 34.7457L29.6238 34.769L29.548 34.7933L29.4718 34.8184L29.3956 34.8449L29.3857 34.8483L29.5355 35.2645L29.5416 35.2623L29.6135 35.2377L29.6849 35.2143L29.7564 35.1914L29.8278 35.1692L29.8992 35.1484L29.9707 35.1276L30.0416 35.1081L30.1126 35.0891L30.1836 35.0709L30.2545 35.0536L30.3251 35.0367L30.3957 35.0211L30.4663 35.0059L30.5364 34.9917L30.6066 34.9778L30.6772 34.9648L30.7473 34.9527L30.8174 34.9406L30.8875 34.9293L30.9573 34.9189L31.0274 34.909L31.0972 34.8994L31.1669 34.8908L31.2367 34.8826L31.3059 34.8748L31.3752 34.8674L31.445 34.8604L31.5138 34.8543L31.5831 34.8487L31.6403 34.8444L31.6056 34.4036L31.6028 34.4032ZM28.143 35.4091L28.0841 35.442L28.0058 35.487L27.9274 35.5333L27.849 35.5804L27.7702 35.6294L27.6918 35.6792L27.6129 35.7302L27.5346 35.7822L27.4557 35.8359L27.3769 35.8905L27.2977 35.9467L27.2184 36.0043L27.1396 36.0632L27.0604 36.1229L26.9812 36.1844L26.9019 36.2472L26.8223 36.3113L26.7426 36.3767L26.6629 36.4433L26.5828 36.5113L26.5028 36.5814L26.4231 36.6524L26.343 36.7247L26.3231 36.7433L26.6245 37.0667L26.6414 37.0516L26.7185 36.9814L26.7955 36.913L26.8722 36.8463L26.9489 36.781L27.0251 36.7169L27.1018 36.6541L27.1776 36.5926L27.2538 36.5328L27.3295 36.4743L27.4053 36.4168L27.481 36.3605L27.5564 36.306L27.6318 36.2527L27.7072 36.2003L27.7821 36.1497L27.857 36.0999L27.9319 36.0514L28.0068 36.0043L28.0812 35.9583L28.1557 35.9133L28.2297 35.8697L28.3038 35.8268L28.3627 35.7939L28.144 35.4094L28.143 35.4091ZM25.3813 37.7057L25.3735 37.714L25.2922 37.8066L25.2129 37.8976L25.1337 37.9872L25.0545 38.076L24.9757 38.1634L24.8968 38.2501L24.818 38.3354L24.7396 38.4194L24.6612 38.5025L24.5833 38.5848L24.5054 38.6658L24.4275 38.7459L24.35 38.8247L24.2724 38.9027L24.1949 38.9793L24.1179 39.0551L24.0408 39.13L23.9641 39.2036L23.8874 39.2763L23.8727 39.2897L24.1736 39.6132L24.1901 39.598L24.269 39.5236L24.3478 39.4482L24.4267 39.372L24.5055 39.2944L24.5847 39.2156L24.6639 39.1359L24.7432 39.0549L24.8229 38.9735L24.9025 38.8908L24.9826 38.8073L25.0623 38.7225L25.1424 38.6363L25.2224 38.5493L25.3029 38.4614L25.3835 38.3722L25.464 38.2817L25.545 38.1903L25.626 38.0981L25.7049 38.008L25.7126 37.9997L25.3818 37.7066L25.3813 37.7057ZM22.8833 40.1449L22.83 40.1869L22.7564 40.2445L22.6824 40.3012L22.6088 40.3571L22.5352 40.4121L22.4619 40.4662L22.3892 40.519L22.3164 40.5709L22.2437 40.622L22.1714 40.6723L22.0991 40.7217L22.0269 40.7702L21.9549 40.8178L21.8835 40.8646L21.8121 40.91L21.7406 40.9547L21.6697 40.9988L21.5987 41.0417L21.5277 41.0837L21.4576 41.1248L21.3875 41.1651L21.3174 41.2045L21.2476 41.2435L21.1779 41.2812L21.1086 41.318L21.0752 41.3354L21.2779 41.7286L21.3147 41.7095L21.3875 41.6705L21.4602 41.6312L21.533 41.5908L21.6062 41.5493L21.6794 41.5073L21.7526 41.4645L21.8262 41.4203L21.8998 41.3757L21.9739 41.3302L22.0479 41.2834L22.1224 41.2363L22.1968 41.1878L22.2713 41.1384L22.3462 41.0882L22.4211 41.0371L22.4964 40.9851L22.5718 40.9322L22.6472 40.8782L22.7229 40.8231L22.7987 40.7672L22.8744 40.7105L22.9507 40.653L23.0274 40.5941L23.1036 40.5344L23.1564 40.4924L22.8832 40.1447L22.8833 40.1449ZM19.8903 41.8427L19.8323 41.8618L19.7673 41.8826L19.7023 41.9025L19.6378 41.922L19.5737 41.9406L19.5096 41.9583L19.4459 41.9752L19.3823 41.9917L19.3191 42.0073L19.2563 42.022L19.1934 42.0359L19.1306 42.0493L19.0683 42.0618L19.0064 42.0739L18.9445 42.0852L18.8827 42.096L18.8216 42.1059L18.7606 42.115L18.6996 42.1236L18.6389 42.1314L18.5787 42.1388L18.5185 42.1453L18.4588 42.1514L18.3991 42.1565L18.3394 42.1608L18.2805 42.1648L18.2216 42.1678L18.1628 42.1704L18.1043 42.1726L18.0462 42.1739L17.9887 42.1747H17.9311L17.8735 42.1742L17.8168 42.1734L17.7947 42.1726L17.7787 42.6142L17.8059 42.6151L17.8678 42.6164L17.9297 42.6168H17.992L18.0549 42.616L18.1177 42.6143L18.1805 42.6122L18.2437 42.6095L18.3078 42.6056L18.3714 42.6013L18.4356 42.5965L18.4997 42.5909L18.5642 42.5848L18.6292 42.5774L18.6941 42.5696L18.7595 42.561L18.8244 42.5519L18.8903 42.5423L18.9561 42.5315L19.0224 42.5198L19.0886 42.5081L19.1553 42.4951L19.2219 42.4817L19.2886 42.4674L19.3557 42.4522L19.4233 42.4362L19.4909 42.4197L19.5585 42.4023L19.6265 42.3842L19.6949 42.3651L19.7634 42.3452L19.8318 42.3249L19.9006 42.3037L19.9694 42.2816L20.0274 42.2626L19.891 41.8421L19.8903 41.8427ZM16.5405 41.98L16.5189 41.9739L16.4682 41.9592L16.418 41.9436L16.3674 41.9276L16.3171 41.9111L16.2669 41.8937L16.2171 41.8764L16.1681 41.8587L16.1187 41.84L16.0698 41.821L16.0213 41.8015L15.9729 41.7816L15.9248 41.7613L15.8771 41.7405L15.8295 41.7193L15.7824 41.6972L15.7356 41.675L15.6888 41.6525L15.642 41.6296L15.5961 41.6062L15.5506 41.5824L15.5047 41.5577L15.4592 41.5331L15.4142 41.5076L15.3696 41.482L15.3249 41.456L15.2803 41.4292L15.2366 41.4024L15.1929 41.3751L15.1495 41.3474L15.1062 41.3192L15.0634 41.2907L15.0205 41.2621L14.9785 41.2326L14.9365 41.2032L14.8945 41.1729L14.853 41.1426L14.8119 41.1119L14.7712 41.0807L14.7305 41.0494L14.6902 41.0178L14.672 41.0031L14.3935 41.3465L14.4144 41.3634L14.4577 41.3976L14.5014 41.4314L14.5451 41.4647L14.5898 41.4981L14.6344 41.531L14.6794 41.5631L14.7249 41.5952L14.7708 41.6267L14.8167 41.6575L14.863 41.6882L14.9098 41.7185L14.9566 41.7484L15.0038 41.7783L15.0514 41.8073L15.099 41.8359L15.1475 41.864L15.1959 41.8918L15.2449 41.9191L15.2943 41.9459L15.3437 41.9723L15.3935 41.9983L15.4437 42.0238L15.494 42.0484L15.5446 42.0731L15.5957 42.0974L15.6468 42.1207L15.6984 42.1437L15.7503 42.1662L15.8027 42.1883L15.8546 42.21L15.9074 42.2312L15.9607 42.252L16.0139 42.2718L16.0676 42.2917L16.1217 42.3107L16.1758 42.3294L16.2304 42.3471L16.2854 42.3645L16.3404 42.3813L16.3959 42.3978L16.4175 42.4039L16.5405 41.9792V41.98ZM13.7658 40.1025L13.7476 40.08L13.7155 40.0401L13.6835 40.0003L13.6523 39.96L13.621 39.9193L13.5903 39.8786L13.56 39.8379L13.5297 39.7967L13.4998 39.7552L13.4704 39.7137L13.4409 39.6722L13.4124 39.6302L13.3838 39.5882L13.3556 39.5457L13.3279 39.5032L13.3001 39.4604L13.2733 39.4175L13.2465 39.3742L13.2201 39.3309L13.1941 39.2876L13.1681 39.2439L13.1425 39.2002L13.1174 39.1561L13.0928 39.1124L13.0685 39.0682L13.0442 39.0236L13.0204 38.9794L12.997 38.9348L12.9737 38.8902L12.9512 38.8452L12.9287 38.8006L12.9066 38.7556L12.8849 38.7101L12.8637 38.6646L12.8429 38.6192L12.8226 38.5737L12.8022 38.5282L12.7824 38.4827L12.7629 38.4368L12.7438 38.3913L12.7252 38.3454L12.7065 38.2995L12.6913 38.2609L12.2796 38.4207L12.2961 38.4627L12.3156 38.5116L12.3354 38.5606L12.3558 38.6095L12.3766 38.658L12.3974 38.7064L12.4191 38.7554L12.4412 38.8038L12.4637 38.8523L12.4862 38.9004L12.5092 38.9485L12.5325 38.9966L12.5563 39.0447L12.5806 39.0923L12.6049 39.1399L12.6295 39.1871L12.6551 39.2342L12.6807 39.281L12.7067 39.3282L12.7331 39.375L12.7599 39.4217L12.7872 39.4681L12.8145 39.5144L12.8426 39.5607L12.8708 39.6066L12.8989 39.6521L12.9279 39.698L12.9568 39.7435L12.9863 39.789L13.0162 39.834L13.0464 39.8786L13.0772 39.9232L13.1084 39.9678L13.1396 40.012L13.1717 40.0562L13.2038 40.0999L13.2362 40.1436L13.2691 40.1869L13.302 40.2302L13.3354 40.2731L13.3691 40.3159L13.4034 40.3588L13.422 40.3813L13.7649 40.1025H13.7658ZM12.3413 37.0273C12.2135 36.3258 12.1928 35.6187 12.3469 34.9194L11.9152 34.8242C11.7463 35.5702 11.7697 36.3583 11.9065 37.107L12.3413 37.0269V37.0273ZM12.766 33.7195C13.0661 33.0826 13.5126 32.4698 13.9569 31.9264L13.6161 31.645C13.1519 32.2057 12.6795 32.8669 12.3685 33.5265L12.766 33.7195ZM14.8263 30.9443L14.8293 30.9413L14.867 30.9015L14.9047 30.8616L14.9427 30.8218L14.9813 30.7815L15.0198 30.7412L15.0583 30.7008L15.0973 30.6605L15.1367 30.6198L15.1761 30.5792L15.2154 30.5385L15.2553 30.4978L15.2956 30.4566L15.3359 30.4155L15.3766 30.3743L15.4173 30.3332L15.4584 30.2916L15.5 30.2496L15.5415 30.2076L15.583 30.1661L15.625 30.1241L15.667 30.0821L15.7099 30.0396L15.7527 29.9972L15.7956 29.9547L15.8389 29.9118L15.8822 29.869L15.9259 29.8262L15.9697 29.7828L16.0138 29.7395L16.058 29.6962L16.1026 29.6525L16.1472 29.6088L16.1922 29.5652L16.2372 29.521L16.2827 29.4768L16.3282 29.4327L16.3741 29.3881L16.3771 29.3854L16.0688 29.0685L16.0658 29.0715L16.0198 29.1161L15.9739 29.1607L15.9284 29.2049L15.8829 29.2495L15.8379 29.2932L15.7929 29.3373L15.7483 29.381L15.7037 29.4247L15.6595 29.4684L15.6154 29.5117L15.5712 29.555L15.5274 29.5983L15.4841 29.6412L15.4408 29.6845L15.398 29.7273L15.3551 29.7698L15.3123 29.8127L15.2703 29.8551L15.2283 29.8971L15.1863 29.9396L15.1448 29.9816L15.1032 30.0236L15.0621 30.0656L15.0209 30.1071L14.9802 30.1487L14.9395 30.1902L14.8989 30.2317L14.8585 30.2729L14.8187 30.314L14.7789 30.3552L14.7395 30.3963L14.7001 30.4375L14.6611 30.4782L14.6226 30.5185L14.5836 30.5592L14.545 30.5999L14.507 30.6402L14.504 30.6437L14.8261 30.9464V30.9443H14.8263Z" fill="white"/>
</svg>
