<svg width="48" height="48" viewBox="0 0 48 48" fill="none" xmlns="http://www.w3.org/2000/svg">
<circle cx="24" cy="24" r="24" fill="#C4EBFF"/>
<mask id="mask0_6_474" style="mask-type:alpha" maskUnits="userSpaceOnUse" x="0" y="0" width="48" height="48">
<circle cx="24" cy="24" r="24" fill="#CAEDFF"/>
</mask>
<g mask="url(#mask0_6_474)">
<g opacity="0.75">
<path d="M47.5446 18.0041C48.0147 11.2414 43.4102 4.33446 36.4673 1.41554C33.6949 0.250377 30.5369 -0.326199 27.5596 0.190317C25.7877 0.490617 24.1123 1.1753 22.5212 1.92005C19.6645 3.2774 16.8801 4.98311 15.2528 7.48161C14.2644 8.99512 13.6376 10.845 11.9622 11.7459C10.0336 12.7789 7.53847 12.1303 5.27238 12.2264C2.81343 12.3345 0.450907 13.3915 -1.07991 15.0852C-2.61073 16.7789 -3.28573 19.0612 -2.88796 21.2354C-2.50224 23.3855 -1.14018 25.3074 -0.561602 27.4215C0.137511 29.9321 -0.296421 32.5747 0.125458 35.1333C0.933054 39.9741 5.07952 44.2984 10.3349 45.7879C11.7693 46.1963 13.3001 46.4005 14.7827 46.1843C16.6752 45.908 18.3386 44.9471 20.1707 44.4546C23.1962 43.6378 26.4627 44.1182 29.6208 44.4546C31.8025 44.6828 34.0324 44.839 36.1659 44.4426C37.5883 44.1783 38.9503 43.6858 40.216 43.0492C45.7004 40.2624 49.0513 34.8089 49.8107 29.1993C50.5701 23.5777 48.9911 17.836 46.3513 12.6227" fill="#C1EBFF"/>
</g>
<path d="M33.3913 46.5098L42.7698 46.5098L42.7698 19.6906L33.3913 19.6906L33.3913 46.5098Z" fill="#FF867B"/>
<path opacity="0.1" d="M33.3838 19.6953V46.5145H42.7623V46.3113L33.8459 19.6953H33.3838Z" fill="#121420"/>
<g opacity="0.58">
<g opacity="0.58">
<path opacity="0.58" d="M41.3216 36.15H41.8109C41.8924 36.15 41.974 36.0823 41.974 35.9874V35.852C41.974 35.7707 41.906 35.6895 41.8109 35.6895H41.3216C41.24 35.6895 41.1584 35.7572 41.1584 35.852V35.9874C41.172 36.0823 41.24 36.15 41.3216 36.15Z" fill="#FF455B"/>
<path opacity="0.58" d="M40.7642 36.6783H41.2535C41.335 36.6783 41.4166 36.6106 41.4166 36.5158V36.3803C41.4166 36.299 41.3486 36.2178 41.2535 36.2178H40.7642C40.6826 36.2178 40.6011 36.2855 40.6011 36.3803V36.5158C40.6011 36.6106 40.6826 36.6783 40.7642 36.6783Z" fill="#FF455B"/>
<path opacity="0.58" d="M40.4109 36.15H40.9002C40.9818 36.15 41.0633 36.0823 41.0633 35.9874V35.852C41.0633 35.7707 40.9954 35.6895 40.9002 35.6895H40.4109C40.3294 35.6895 40.2478 35.7572 40.2478 35.852V35.9874C40.2478 36.0823 40.3294 36.15 40.4109 36.15Z" fill="#FF455B"/>
</g>
<g opacity="0.58">
<path opacity="0.58" d="M35.3819 21.8189H35.8712C35.9527 21.8189 36.0343 21.7512 36.0343 21.6564V21.5209C36.0343 21.4397 35.9663 21.3584 35.8712 21.3584H35.3819C35.3003 21.3584 35.2188 21.4261 35.2188 21.5209V21.6564C35.2188 21.7512 35.2867 21.8189 35.3819 21.8189Z" fill="#FF455B"/>
<path opacity="0.58" d="M34.8247 22.3473H35.314C35.3956 22.3473 35.4771 22.2795 35.4771 22.1847V22.0493C35.4771 21.968 35.4092 21.8867 35.314 21.8867H34.8247C34.7432 21.8867 34.6616 21.9544 34.6616 22.0493V22.1847C34.6616 22.2795 34.7296 22.3473 34.8247 22.3473Z" fill="#FF455B"/>
<path opacity="0.58" d="M34.4712 21.8199H34.9605C35.0421 21.8199 35.1236 21.7522 35.1236 21.6574V21.5219C35.1236 21.4406 35.0557 21.3594 34.9605 21.3594H34.4712C34.3897 21.3594 34.3081 21.4271 34.3081 21.5219V21.6574C34.3081 21.7522 34.3761 21.8199 34.4712 21.8199Z" fill="#FF455B"/>
</g>
</g>
<path d="M33.3964 20.0977L42.8972 20.0977L42.8972 19.2308L33.3964 19.2308L33.3964 20.0977Z" fill="#FF455B"/>
<path d="M33.3838 19.2194H42.8982L41.2264 14.1807H33.8323L33.3838 19.2194Z" fill="#F27C96"/>
<path d="M33.3915 20.7354L42.77 20.7354L42.77 20.3967L33.3915 20.3967L33.3915 20.7354Z" fill="#FF455B"/>
<path d="M33.3913 34.1035L42.7698 34.1035L42.7698 32.0176L33.3913 32.0176L33.3913 34.1035Z" fill="#FF455B"/>
<path d="M33.3913 34.6553L42.7698 34.6553L42.7698 34.3166L33.3913 34.3166L33.3913 34.6553Z" fill="#FF455B"/>
<path d="M39.8164 43.9827V36.709H36.4728V43.9827H39.8164Z" fill="#BADBED"/>
<path opacity="0.13" d="M39.8129 43.6925V43.9905H36.4692V36.7168H37.611C37.176 37.4482 36.9178 38.4099 36.9178 39.4393C36.9178 41.742 38.209 43.6112 39.8129 43.6925Z" fill="#121420"/>
<path opacity="0.35" d="M33.4471 44.2116L34.1282 44.9492L42.8302 36.9702L42.1492 36.2325L33.4471 44.2116Z" fill="white"/>
<path opacity="0.35" d="M41.6069 35.6491L41.2664 35.2803L32.5643 43.2593L32.9048 43.6281L41.6069 35.6491Z" fill="white"/>
<path opacity="0.35" d="M43.5971 38.2428L43.3486 37.9736L34.6466 45.9527L34.8951 46.2218L43.5971 38.2428Z" fill="white"/>
<path opacity="0.21" d="M39.8129 36.7178V37.0293H36.7683V43.9915H36.4692V36.7178H39.8129Z" fill="#121420"/>
<path d="M36.0342 36.2715V44.4256H40.2613V36.2715H36.0342ZM39.8128 43.9922H36.4691V39.3868H39.8128V43.9922ZM39.8128 38.9534H36.4691V36.7185H39.8128V38.9534Z" fill="white"/>
<path d="M39.8096 29.7952V22.5215H36.4659V29.7952H39.8096Z" fill="#BADBED"/>
<path opacity="0.13" d="M39.8146 29.4991V29.7971H36.4709V22.5234H37.6127C37.1777 23.2549 36.9195 24.2166 36.9195 25.246C36.9195 27.5486 38.2107 29.4314 39.8146 29.4991Z" fill="#121420"/>
<path opacity="0.35" d="M33.4523 30.0202L34.1333 30.7578L42.8353 22.7788L42.1543 22.0411L33.4523 30.0202Z" fill="white"/>
<path opacity="0.35" d="M41.6118 21.4567L41.2712 21.0879L32.5692 29.067L32.9097 29.4358L41.6118 21.4567Z" fill="white"/>
<path opacity="0.35" d="M43.602 24.0504L43.3535 23.7812L34.6515 31.7603L34.9 32.0295L43.602 24.0504Z" fill="white"/>
<path opacity="0.21" d="M39.8129 22.5234V22.8485H36.7683V29.8107H36.4692V22.5234H39.8129Z" fill="#121420"/>
<path d="M36.0342 22.0908V30.2449H40.2613V22.0908H36.0342ZM39.8128 29.7979H36.4691V25.1926H39.8128V29.7979ZM39.8128 24.7592H36.4691V22.5243H39.8128V24.7592Z" fill="white"/>
<path d="M14.0831 19.7627H4.70459V46.5819H14.0831V19.7627Z" fill="#FF867B"/>
<path opacity="0.07" d="M14.0831 19.7627V46.5819H4.70459V46.3787L13.6345 19.7627H14.0831Z" fill="#121420"/>
<g opacity="0.58">
<g opacity="0.58">
<path opacity="0.58" d="M6.14533 36.2193H5.65602C5.57447 36.2193 5.49292 36.1516 5.49292 36.0568V35.9213C5.49292 35.8401 5.56088 35.7588 5.65602 35.7588H6.14533C6.22688 35.7588 6.30844 35.8265 6.30844 35.9213V36.0568C6.30844 36.1516 6.24048 36.2193 6.14533 36.2193Z" fill="#FF455B"/>
<path opacity="0.58" d="M6.70271 36.7603H6.2134C6.13184 36.7603 6.05029 36.6926 6.05029 36.5978V36.4623C6.05029 36.3811 6.11825 36.2998 6.2134 36.2998H6.70271C6.78426 36.2998 6.86582 36.3675 6.86582 36.4623V36.5978C6.86582 36.6791 6.79786 36.7603 6.70271 36.7603Z" fill="#FF455B"/>
<path opacity="0.58" d="M7.05598 36.2193H6.56667C6.48512 36.2193 6.40356 36.1516 6.40356 36.0568V35.9213C6.40356 35.8401 6.47153 35.7588 6.56667 35.7588H7.05598C7.13754 35.7588 7.21909 35.8265 7.21909 35.9213V36.0568C7.21909 36.1516 7.15113 36.2193 7.05598 36.2193Z" fill="#FF455B"/>
</g>
<g opacity="0.58">
<path opacity="0.58" d="M12.0987 21.8883H11.6094C11.5278 21.8883 11.4463 21.8205 11.4463 21.7257V21.5903C11.4463 21.509 11.5142 21.4277 11.6094 21.4277H12.0987C12.1803 21.4277 12.2618 21.4955 12.2618 21.5903V21.7257C12.2482 21.8205 12.1803 21.8883 12.0987 21.8883Z" fill="#FF455B"/>
<path opacity="0.58" d="M12.6561 22.4156H12.1668C12.0852 22.4156 12.0037 22.3479 12.0037 22.2531V22.1176C12.0037 22.0363 12.0716 21.9551 12.1668 21.9551H12.6561C12.7376 21.9551 12.8192 22.0228 12.8192 22.1176V22.2531C12.8056 22.3479 12.7376 22.4156 12.6561 22.4156Z" fill="#FF455B"/>
<path opacity="0.58" d="M13.0094 21.8873H12.52C12.4385 21.8873 12.3569 21.8196 12.3569 21.7247V21.5893C12.3569 21.508 12.4249 21.4268 12.52 21.4268H13.0094C13.0909 21.4268 13.1725 21.4945 13.1725 21.5893V21.7247C13.1589 21.8196 13.0909 21.8873 13.0094 21.8873Z" fill="#FF455B"/>
</g>
</g>
<path d="M14.0831 19.2881H4.58228V20.155H14.0831V19.2881Z" fill="#FF455B"/>
<path d="M14.0831 19.2879H4.58228L6.2405 14.2627H13.6346L14.0831 19.2879Z" fill="#F27C96"/>
<path d="M14.0831 20.4805H4.70459V20.8191H14.0831V20.4805Z" fill="#FF455B"/>
<path d="M14.0831 32.0742H4.70459V34.1601H14.0831V32.0742Z" fill="#FF455B"/>
<path d="M14.0831 34.3906H4.70459V34.7293H14.0831V34.3906Z" fill="#FF455B"/>
<path d="M11.0085 44.0618L11.0085 36.7881H7.66491L7.66491 44.0618H11.0085Z" fill="#BADBED"/>
<path opacity="0.13" d="M10.9977 43.7638V44.0618H7.65405V36.7881H8.79578C8.36084 37.5195 8.10259 38.4812 8.10259 39.5106C8.11618 41.8133 9.39383 43.6825 10.9977 43.7638Z" fill="#121420"/>
<path opacity="0.35" d="M4.64148 44.2888L5.32251 45.0264L14.0246 37.0473L13.3435 36.3097L4.64148 44.2888Z" fill="white"/>
<path opacity="0.35" d="M12.7941 35.7165L12.4536 35.3477L3.75155 43.3267L4.09207 43.6955L12.7941 35.7165Z" fill="white"/>
<path opacity="0.35" d="M14.7844 38.3101L14.5359 38.041L5.83384 46.0201L6.08232 46.2892L14.7844 38.3101Z" fill="white"/>
<path opacity="0.21" d="M10.9977 36.7891V37.1006H7.95308V44.0628H7.65405V36.7891H10.9977Z" fill="#121420"/>
<path d="M7.21924 36.3418V44.4959H11.4464V36.3418H7.21924ZM10.9978 44.0625H7.65418V39.4572H10.9978V44.0625ZM10.9978 39.0237H7.65418V36.7888H10.9978V39.0237Z" fill="white"/>
<path d="M11.0017 29.8752L11.0017 22.6016H7.65807L7.65807 29.8752H11.0017Z" fill="#BADBED"/>
<path opacity="0.13" d="M10.9977 29.5695V29.8674H7.65405V22.5938H8.79578C8.36084 23.3252 8.10259 24.2869 8.10259 25.3163C8.11618 27.619 9.39383 29.5017 10.9977 29.5695Z" fill="#121420"/>
<path opacity="0.35" d="M4.64685 30.0964L5.32788 30.834L14.0299 22.8549L13.3489 22.1173L4.64685 30.0964Z" fill="white"/>
<path opacity="0.35" d="M12.799 21.5231L12.4585 21.1543L3.75643 29.1334L4.09695 29.5022L12.799 21.5231Z" fill="white"/>
<path opacity="0.35" d="M14.7893 24.1168L14.5408 23.8477L5.83872 31.8267L6.0872 32.0958L14.7893 24.1168Z" fill="white"/>
<path opacity="0.21" d="M10.9977 22.5938V22.9188H7.95308V29.881H7.65405V22.5938H10.9977Z" fill="#121420"/>
<path d="M7.21924 22.1602V30.3143H11.4464V22.1602H7.21924ZM10.9978 29.8808H7.65418V25.2755H10.9978V29.8808ZM10.9978 24.8285H7.65418V22.5936H10.9978V24.8285Z" fill="white"/>
<path d="M34.4302 9.96875H13.1587V46.6081H34.4302V9.96875Z" fill="#FF867B"/>
<path opacity="0.07" d="M34.4302 13.6777V46.6057H13.4441L34.4302 13.6777Z" fill="#121420"/>
<path d="M35.1507 45.7275H12.4385V46.5944H35.1507V45.7275Z" fill="#FF455B"/>
<path opacity="0.09" d="M34.4302 36.0693H13.1587V36.7872H34.4302V36.0693Z" fill="black"/>
<path d="M35.1507 33.6191H12.4385V34.486H35.1507V33.6191Z" fill="#FF455B"/>
<path d="M36.0749 36.2463H11.5142L12.4792 34.499H35.2051L36.0749 36.2463Z" fill="#DB3552"/>
<path d="M34.4846 32.9004H13.2131V33.1171H34.4846V32.9004Z" fill="#FF455B"/>
<path d="M35.1507 8.33008H12.4385V10.416H35.1507V8.33008Z" fill="#FF455B"/>
<path d="M34.4983 10.416H13.2268V11.2016H34.4983V10.416Z" fill="#FF455B"/>
<path d="M34.4846 11.4453H13.2131V11.662H34.4846V11.4453Z" fill="#FF455B"/>
<path d="M35.1507 8.32974H12.4385L14.7219 6H32.8673L35.1507 8.32974Z" fill="#F27C96"/>
<g opacity="0.63">
<g opacity="0.63">
<path opacity="0.63" d="M14.7354 38.8092H14.2461C14.1646 38.8092 14.083 38.7414 14.083 38.6466V38.5112C14.083 38.4299 14.151 38.3486 14.2461 38.3486H14.7354C14.817 38.3486 14.8985 38.4164 14.8985 38.5112V38.6466C14.8849 38.7414 14.817 38.8092 14.7354 38.8092Z" fill="#FF455B"/>
<path opacity="0.63" d="M15.2928 39.3365H14.8035C14.7219 39.3365 14.6404 39.2688 14.6404 39.174V39.0385C14.6404 38.9572 14.7083 38.876 14.8035 38.876H15.2928C15.3744 38.876 15.4559 38.9437 15.4559 39.0385V39.174C15.4423 39.2688 15.3744 39.3365 15.2928 39.3365Z" fill="#FF455B"/>
<path opacity="0.63" d="M15.6461 38.8082H15.1568C15.0752 38.8082 14.9937 38.7405 14.9937 38.6456V38.5102C14.9937 38.4289 15.0616 38.3477 15.1568 38.3477H15.6461C15.7276 38.3477 15.8092 38.4154 15.8092 38.5102V38.6456C15.7956 38.7405 15.7276 38.8082 15.6461 38.8082Z" fill="#FF455B"/>
</g>
<g opacity="0.63">
<path opacity="0.63" d="M16.6656 42.5045H16.1763C16.0947 42.5045 16.0132 42.4368 16.0132 42.3419V42.2065C16.0132 42.1252 16.0811 42.0439 16.1763 42.0439H16.6656C16.7472 42.0439 16.8287 42.1117 16.8287 42.2065V42.3419C16.8151 42.4368 16.7472 42.5045 16.6656 42.5045Z" fill="#FF455B"/>
<path opacity="0.63" d="M17.223 43.0318H16.7337C16.6521 43.0318 16.5706 42.9641 16.5706 42.8693V42.7338C16.5706 42.6526 16.6385 42.5713 16.7337 42.5713H17.223C17.3045 42.5713 17.3861 42.639 17.3861 42.7338V42.8693C17.3725 42.9641 17.3045 43.0318 17.223 43.0318Z" fill="#FF455B"/>
<path opacity="0.63" d="M17.5762 42.5035H17.0869C17.0054 42.5035 16.9238 42.4358 16.9238 42.341V42.2055C16.9238 42.1242 16.9918 42.043 17.0869 42.043H17.5762C17.6578 42.043 17.7394 42.1107 17.7394 42.2055V42.341C17.7258 42.4358 17.6578 42.5035 17.5762 42.5035Z" fill="#FF455B"/>
</g>
<g opacity="0.63">
<path opacity="0.63" d="M29.5916 37.4801H29.1023C29.0208 37.4801 28.9392 37.4123 28.9392 37.3175V37.1821C28.9392 37.1008 29.0072 37.0195 29.1023 37.0195H29.5916C29.6732 37.0195 29.7547 37.0873 29.7547 37.1821V37.3175C29.7547 37.4123 29.6732 37.4801 29.5916 37.4801Z" fill="#FF455B"/>
<path opacity="0.63" d="M30.149 38.0084H29.6597C29.5781 38.0084 29.4966 37.9407 29.4966 37.8458V37.7104C29.4966 37.6291 29.5645 37.5479 29.6597 37.5479H30.149C30.2305 37.5479 30.3121 37.6156 30.3121 37.7104V37.8458C30.3121 37.9407 30.2305 38.0084 30.149 38.0084Z" fill="#FF455B"/>
<path opacity="0.63" d="M30.5023 37.4801H30.013C29.9314 37.4801 29.8499 37.4123 29.8499 37.3175V37.1821C29.8499 37.1008 29.9178 37.0195 30.013 37.0195H30.5023C30.5838 37.0195 30.6654 37.0873 30.6654 37.1821V37.3175C30.6654 37.4123 30.5838 37.4801 30.5023 37.4801Z" fill="#FF455B"/>
</g>
<g opacity="0.63">
<path opacity="0.63" d="M26.0711 13.2887H25.5818C25.5003 13.2887 25.4187 13.2209 25.4187 13.1261V12.9907C25.4187 12.9094 25.4867 12.8281 25.5818 12.8281H26.0711C26.1527 12.8281 26.2342 12.8959 26.2342 12.9907V13.1261C26.2206 13.2074 26.1527 13.2887 26.0711 13.2887Z" fill="#FF455B"/>
<path opacity="0.63" d="M26.6285 13.817H26.1392C26.0576 13.817 25.9761 13.7493 25.9761 13.6544V13.519C25.9761 13.4377 26.044 13.3564 26.1392 13.3564H26.6285C26.71 13.3564 26.7916 13.4242 26.7916 13.519V13.6544C26.7916 13.7493 26.71 13.817 26.6285 13.817Z" fill="#FF455B"/>
<path opacity="0.63" d="M26.9818 13.2887H26.4924C26.4109 13.2887 26.3293 13.2209 26.3293 13.1261V12.9907C26.3293 12.9094 26.3973 12.8281 26.4924 12.8281H26.9818C27.0633 12.8281 27.1449 12.8959 27.1449 12.9907V13.1261C27.1449 13.2074 27.0633 13.2887 26.9818 13.2887Z" fill="#FF455B"/>
</g>
<g opacity="0.63">
<path opacity="0.63" d="M14.3685 26.2242H13.8792C13.7976 26.2242 13.7161 26.1565 13.7161 26.0617V25.9262C13.7161 25.8449 13.784 25.7637 13.8792 25.7637H14.3685C14.45 25.7637 14.5316 25.8314 14.5316 25.9262V26.0617C14.518 26.1565 14.45 26.2242 14.3685 26.2242Z" fill="#FF455B"/>
<path opacity="0.63" d="M14.9259 26.7516H14.4365C14.355 26.7516 14.2734 26.6838 14.2734 26.589V26.4536C14.2734 26.3723 14.3414 26.291 14.4365 26.291H14.9259C15.0074 26.291 15.089 26.3587 15.089 26.4536V26.589C15.089 26.6838 15.0074 26.7516 14.9259 26.7516Z" fill="#FF455B"/>
<path opacity="0.63" d="M15.2791 26.2232H14.7898C14.7083 26.2232 14.6267 26.1555 14.6267 26.0607V25.9252C14.6267 25.844 14.6947 25.7627 14.7898 25.7627H15.2791C15.3607 25.7627 15.4422 25.8304 15.4422 25.9252V26.0607C15.4422 26.1555 15.3607 26.2232 15.2791 26.2232Z" fill="#FF455B"/>
</g>
<g opacity="0.63">
<path opacity="0.63" d="M32.0108 20.1822H31.5215C31.4399 20.1822 31.3584 20.1145 31.3584 20.0197V19.8842C31.3584 19.8029 31.4264 19.7217 31.5215 19.7217H32.0108C32.0924 19.7217 32.1739 19.7894 32.1739 19.8842V20.0197C32.1739 20.1145 32.0924 20.1822 32.0108 20.1822Z" fill="#FF455B"/>
<path opacity="0.63" d="M32.5682 20.7105H32.0789C31.9973 20.7105 31.9158 20.6428 31.9158 20.548V20.4125C31.9158 20.3313 31.9837 20.25 32.0789 20.25H32.5682C32.6497 20.25 32.7313 20.3177 32.7313 20.4125V20.548C32.7313 20.6428 32.6633 20.7105 32.5682 20.7105Z" fill="#FF455B"/>
<path opacity="0.63" d="M32.9215 20.1822H32.4321C32.3506 20.1822 32.269 20.1145 32.269 20.0197V19.8842C32.269 19.8029 32.337 19.7217 32.4321 19.7217H32.9215C33.003 19.7217 33.0846 19.7894 33.0846 19.8842V20.0197C33.0846 20.1145 33.0166 20.1822 32.9215 20.1822Z" fill="#FF455B"/>
</g>
<g opacity="0.63">
<path opacity="0.63" d="M32.3236 43.359H31.8342C31.7527 43.359 31.6711 43.2912 31.6711 43.1964V43.061C31.6711 42.9797 31.7391 42.8984 31.8342 42.8984H32.3236C32.4051 42.8984 32.4867 42.9662 32.4867 43.061V43.1964C32.4731 43.2912 32.4051 43.359 32.3236 43.359Z" fill="#FF455B"/>
<path opacity="0.63" d="M32.8809 43.8863H32.3916C32.3101 43.8863 32.2285 43.8186 32.2285 43.7238V43.5883C32.2285 43.5071 32.2965 43.4258 32.3916 43.4258H32.8809C32.9625 43.4258 33.044 43.4935 33.044 43.5883V43.7238C33.0304 43.8186 32.9625 43.8863 32.8809 43.8863Z" fill="#FF455B"/>
<path opacity="0.63" d="M33.2342 43.358H32.7449C32.6633 43.358 32.5818 43.2903 32.5818 43.1955V43.06C32.5818 42.9787 32.6497 42.8975 32.7449 42.8975H33.2342C33.3158 42.8975 33.3973 42.9652 33.3973 43.06V43.1955C33.3837 43.2903 33.3158 43.358 33.2342 43.358Z" fill="#FF455B"/>
</g>
</g>
<path d="M31.5215 14.3027H28.042V17.7703H31.5215V14.3027Z" fill="#BADBED"/>
<path opacity="0.13" d="M31.5215 16.8492V17.7703H28.042V14.3027H28.5449C28.5449 14.3027 28.5313 14.3163 28.5313 14.3298C28.3954 14.6007 28.3274 14.8987 28.3274 15.2103C28.3274 16.3209 29.2381 17.2149 30.3526 17.2149C30.7604 17.2149 31.141 17.093 31.4672 16.8898C31.4808 16.8763 31.508 16.8627 31.5215 16.8492Z" fill="#121420"/>
<path opacity="0.35" d="M32.5752 13.5648L32.428 13.4053L24.2461 20.9074L24.3933 21.0669L32.5752 13.5648Z" fill="white"/>
<path opacity="0.35" d="M25.3682 20.6392L26.0125 21.3369L34.1944 13.8348L33.5502 13.137L25.3682 20.6392Z" fill="white"/>
<path opacity="0.35" d="M32.7853 12.4054L32.5552 12.1562L24.3732 19.6584L24.6033 19.9076L32.7853 12.4054Z" fill="white"/>
<path opacity="0.21" d="M31.5215 14.3027V14.5872H28.3546V17.7703H28.042V14.3027H31.5215Z" fill="#121420"/>
<path d="M27.634 13.8828V18.1766H31.9427V13.8828H27.634ZM29.9855 14.3027H31.5214V15.8333H29.9855V14.3027ZM29.5777 17.7702H28.0418V16.2397H29.5777V17.7702ZM29.5777 15.8333H28.0418V14.3027H29.5777V15.8333ZM31.5214 17.7702H29.9855V16.2397H31.5214V17.7702Z" fill="white"/>
<path d="M25.5003 14.3018H22.0208V17.7693H25.5003V14.3018Z" fill="#BADBED"/>
<path opacity="0.13" d="M25.5003 16.8482V17.7693H22.0208V14.3018H22.5237C22.5237 14.3018 22.5101 14.3153 22.5101 14.3288C22.3741 14.5997 22.3062 14.8977 22.3062 15.2093C22.3062 16.32 23.2168 17.2139 24.3314 17.2139C24.7391 17.2139 25.1197 17.092 25.4459 16.8889C25.4595 16.8753 25.4731 16.8618 25.5003 16.8482Z" fill="#121420"/>
<path opacity="0.35" d="M26.544 13.555L26.3967 13.3955L18.2148 20.8977L18.362 21.0572L26.544 13.555Z" fill="white"/>
<path opacity="0.35" d="M19.3436 20.6372L19.9878 21.335L28.1697 13.8328L27.5255 13.1351L19.3436 20.6372Z" fill="white"/>
<path opacity="0.35" d="M26.7633 12.4064L26.5332 12.1572L18.3513 19.6594L18.5813 19.9086L26.7633 12.4064Z" fill="white"/>
<path opacity="0.21" d="M25.5003 14.3018V14.5862H22.3334V17.7693H22.0208V14.3018H25.5003Z" fill="#121420"/>
<path d="M21.6128 13.8818V18.1756H25.9215V13.8818H21.6128ZM23.9642 14.3017H25.5001V15.8323H23.9642V14.3017ZM23.5564 17.7693H22.0206V16.2387H23.5564V17.7693ZM23.5564 15.8323H22.0206V14.3017H23.5564V15.8323ZM25.5001 17.7693H23.9642V16.2387H25.5001V17.7693Z" fill="white"/>
<path d="M19.5469 14.3027H16.0674V17.7703H19.5469V14.3027Z" fill="#BADBED"/>
<path opacity="0.13" d="M19.5469 16.8492V17.7703H16.0674V14.3027H16.5703C16.5703 14.3027 16.5567 14.3163 16.5567 14.3298C16.4208 14.6007 16.3528 14.8987 16.3528 15.2103C16.3528 16.3209 17.2635 17.2149 18.378 17.2149C18.7858 17.2149 19.1664 17.093 19.4926 16.8898C19.5062 16.8763 19.5198 16.8627 19.5469 16.8492Z" fill="#121420"/>
<path opacity="0.35" d="M20.5904 13.556L20.4431 13.3965L12.2612 20.8986L12.4084 21.0581L20.5904 13.556Z" fill="white"/>
<path opacity="0.35" d="M13.39 20.6372L14.0342 21.335L22.2161 13.8328L21.5719 13.1351L13.39 20.6372Z" fill="white"/>
<path opacity="0.35" d="M20.8097 12.4074L20.5796 12.1582L12.3977 19.6604L12.6277 19.9096L20.8097 12.4074Z" fill="white"/>
<path opacity="0.21" d="M19.5469 14.3027V14.5872H16.38V17.7703H16.0674V14.3027H19.5469Z" fill="#121420"/>
<path d="M15.6594 13.8828V18.1766H19.9681V13.8828H15.6594ZM18.0108 14.3027H19.5467V15.8333H18.0108V14.3027ZM17.6031 17.7702H16.0672V16.2397H17.6031V17.7702ZM17.6031 15.8333H16.0672V14.3027H17.6031V15.8333ZM19.5467 17.7702H18.0108V16.2397H19.5467V17.7702Z" fill="white"/>
<path d="M31.5215 20.5469H28.042V24.0144H31.5215V20.5469Z" fill="#BADBED"/>
<path opacity="0.13" d="M31.5215 23.0934V24.0144H28.042V20.5469H28.5449C28.5449 20.5469 28.5313 20.5604 28.5313 20.574C28.3954 20.8449 28.3274 21.1429 28.3274 21.4544C28.3274 22.5651 29.2381 23.4591 30.3526 23.4591C30.7604 23.4591 31.141 23.3372 31.4672 23.134C31.4808 23.1204 31.508 23.1069 31.5215 23.0934Z" fill="#121420"/>
<path opacity="0.35" d="M32.5752 19.8089L32.428 19.6494L24.2461 27.1516L24.3933 27.3111L32.5752 19.8089Z" fill="white"/>
<path opacity="0.35" d="M25.3685 26.8833L26.0127 27.5811L34.1946 20.0789L33.5504 19.3811L25.3685 26.8833Z" fill="white"/>
<path opacity="0.35" d="M32.7853 18.6496L32.5552 18.4004L24.3732 25.9025L24.6033 26.1517L32.7853 18.6496Z" fill="white"/>
<path opacity="0.21" d="M31.5215 20.5469V20.8313H28.3546V24.0144H28.042V20.5469H31.5215Z" fill="#121420"/>
<path d="M27.6343 20.127V24.4207H31.9429V20.127H27.6343ZM29.9857 20.5468H31.5216V22.0774H29.9857V20.5468ZM29.5779 24.0144H28.042V22.4838H29.5779V24.0144ZM29.5779 22.0774H28.042V20.5468H29.5779V22.0774ZM31.5216 24.0144H29.9857V22.4838H31.5216V24.0144Z" fill="white"/>
<path d="M25.5003 20.5469H22.0208V24.0144H25.5003V20.5469Z" fill="#BADBED"/>
<path opacity="0.13" d="M25.5003 23.0934V24.0144H22.0208V20.5469H22.5237C22.5237 20.5469 22.5101 20.5604 22.5101 20.574C22.3741 20.8449 22.3062 21.1429 22.3062 21.4544C22.3062 22.5651 23.2168 23.4591 24.3314 23.4591C24.7392 23.4591 25.1197 23.3372 25.4459 23.134C25.4595 23.1204 25.4731 23.1069 25.5003 23.0934Z" fill="#121420"/>
<path opacity="0.35" d="M26.544 19.7991L26.3967 19.6396L18.2148 27.1418L18.3621 27.3013L26.544 19.7991Z" fill="white"/>
<path opacity="0.35" d="M19.3438 26.8804L19.988 27.5781L28.17 20.076L27.5257 19.3782L19.3438 26.8804Z" fill="white"/>
<path opacity="0.35" d="M26.7633 18.6506L26.5332 18.4014L18.3512 25.9035L18.5813 26.1527L26.7633 18.6506Z" fill="white"/>
<path opacity="0.21" d="M25.5003 20.5469V20.8313H22.3334V24.0144H22.0208V20.5469H25.5003Z" fill="#121420"/>
<path d="M21.613 20.126V24.4198H25.9217V20.126H21.613ZM23.9645 20.5459H25.5003V22.0765H23.9645V20.5459ZM23.5567 24.0134H22.0208V22.4828H23.5567V24.0134ZM23.5567 22.0765H22.0208V20.5459H23.5567V22.0765ZM25.5003 24.0134H23.9645V22.4828H25.5003V24.0134Z" fill="white"/>
<path d="M19.5469 20.5469H16.0674V24.0144H19.5469V20.5469Z" fill="#BADBED"/>
<path opacity="0.13" d="M19.5469 23.0934V24.0144H16.0674V20.5469H16.5703C16.5703 20.5469 16.5567 20.5604 16.5567 20.574C16.4208 20.8449 16.3528 21.1429 16.3528 21.4544C16.3528 22.5651 17.2635 23.4591 18.378 23.4591C18.7858 23.4591 19.1664 23.3372 19.4926 23.134C19.5062 23.1204 19.5198 23.1069 19.5469 23.0934Z" fill="#121420"/>
<path opacity="0.35" d="M20.5904 19.8001L20.4431 19.6406L12.2612 27.1428L12.4084 27.3023L20.5904 19.8001Z" fill="white"/>
<path opacity="0.35" d="M13.3902 26.8804L14.0344 27.5781L22.2164 20.076L21.5721 19.3782L13.3902 26.8804Z" fill="white"/>
<path opacity="0.35" d="M20.8097 18.6515L20.5796 18.4023L12.3977 25.9045L12.6277 26.1537L20.8097 18.6515Z" fill="white"/>
<path opacity="0.21" d="M19.5469 20.5469V20.8313H16.38V24.0144H16.0674V20.5469H19.5469Z" fill="#121420"/>
<path d="M15.6597 20.127V24.4207H19.9683V20.127H15.6597ZM18.0111 20.5468H19.547V22.0774H18.0111V20.5468ZM17.6033 24.0144H16.0674V22.4838H17.6033V24.0144ZM17.6033 22.0774H16.0674V20.5468H17.6033V22.0774ZM19.547 24.0144H18.0111V22.4838H19.547V24.0144Z" fill="white"/>
<path d="M31.5215 26.4258H28.042V29.8933H31.5215V26.4258Z" fill="#BADBED"/>
<path opacity="0.13" d="M31.5215 28.9722V29.8933H28.042V26.4258H28.5449C28.5449 26.4258 28.5313 26.4393 28.5313 26.4529C28.3954 26.7238 28.3274 27.0218 28.3274 27.3333C28.3274 28.444 29.2381 29.338 30.3526 29.338C30.7604 29.338 31.141 29.2161 31.4672 29.0129C31.4808 28.9993 31.508 28.9858 31.5215 28.9722Z" fill="#121420"/>
<path opacity="0.35" d="M32.5738 25.6878L32.4265 25.5283L24.2446 33.0305L24.3918 33.19L32.5738 25.6878Z" fill="white"/>
<path opacity="0.35" d="M25.3699 32.7593L26.0142 33.457L34.1961 25.9549L33.5519 25.2571L25.3699 32.7593Z" fill="white"/>
<path opacity="0.35" d="M32.7838 24.5285L32.5537 24.2793L24.3718 31.7815L24.6019 32.0307L32.7838 24.5285Z" fill="white"/>
<path opacity="0.21" d="M31.5215 26.4258V26.7102H28.3546V29.8798H28.042V26.4258H31.5215Z" fill="#121420"/>
<path d="M27.6343 26.0068V30.3006H31.9429V26.0068H27.6343ZM29.9857 26.4267H31.5216V27.9438H29.9857V26.4267ZM29.5779 29.8807H28.042V28.3501H29.5779V29.8807ZM29.5779 27.9438H28.042V26.4132H29.5779V27.9438ZM31.5216 29.8807H29.9857V28.3501H31.5216V29.8807Z" fill="white"/>
<path d="M25.5003 26.4268H22.0208V29.8943H25.5003V26.4268Z" fill="#BADBED"/>
<path opacity="0.13" d="M25.5003 28.9732V29.8943H22.0208V26.4268H22.5237C22.5237 26.4268 22.5101 26.4403 22.5101 26.4538C22.3741 26.7247 22.3062 27.0227 22.3062 27.3343C22.3062 28.445 23.2168 29.3389 24.3314 29.3389C24.7392 29.3389 25.1197 29.217 25.4459 29.0139C25.4595 29.0003 25.4731 28.9868 25.5003 28.9732Z" fill="#121420"/>
<path opacity="0.35" d="M26.5425 25.679L26.3953 25.5195L18.2133 33.0217L18.3606 33.1812L26.5425 25.679Z" fill="white"/>
<path opacity="0.35" d="M19.3453 32.7583L19.9895 33.4561L28.1714 25.9539L27.5272 25.2562L19.3453 32.7583Z" fill="white"/>
<path opacity="0.35" d="M26.7618 24.5304L26.5317 24.2812L18.3498 31.7834L18.5799 32.0326L26.7618 24.5304Z" fill="white"/>
<path opacity="0.21" d="M25.5003 26.4268V26.7112H22.3334V29.8808H22.0208V26.4268H25.5003Z" fill="#121420"/>
<path d="M21.613 26.0068V30.3006H25.9217V26.0068H21.613ZM23.9645 26.4267H25.5003V27.9438H23.9645V26.4267ZM23.5567 29.8807H22.0208V28.3501H23.5567V29.8807ZM23.5567 27.9438H22.0208V26.4132H23.5567V27.9438ZM25.5003 29.8807H23.9645V28.3501H25.5003V29.8807Z" fill="white"/>
<path d="M19.5469 26.4268H16.0674V29.8943H19.5469V26.4268Z" fill="#BADBED"/>
<path opacity="0.13" d="M19.5469 28.9732V29.8943H16.0674V26.4268H16.5703C16.5703 26.4268 16.5567 26.4403 16.5567 26.4538C16.4208 26.7247 16.3528 27.0227 16.3528 27.3343C16.3528 28.445 17.2635 29.3389 18.378 29.3389C18.7858 29.3389 19.1664 29.217 19.4926 29.0139C19.5062 29.0003 19.5198 28.9868 19.5469 28.9732Z" fill="#121420"/>
<path opacity="0.35" d="M20.5889 25.679L20.4417 25.5195L12.2597 33.0217L12.407 33.1812L20.5889 25.679Z" fill="white"/>
<path opacity="0.35" d="M13.3914 32.7573L14.0356 33.4551L22.2176 25.9529L21.5734 25.2552L13.3914 32.7573Z" fill="white"/>
<path opacity="0.35" d="M20.8082 24.5304L20.5781 24.2812L12.3962 31.7834L12.6263 32.0326L20.8082 24.5304Z" fill="white"/>
<path opacity="0.21" d="M19.5469 26.4268V26.7112H16.38V29.8807H16.0674V26.4268H19.5469Z" fill="#121420"/>
<path d="M15.6597 26.0059V30.2996H19.9683V26.0059H15.6597ZM18.0111 26.4258H19.547V27.9428H18.0111V26.4258ZM17.6033 29.8797H16.0674V28.3492H17.6033V29.8797ZM17.6033 27.9428H16.0674V26.4122H17.6033V27.9428ZM19.547 29.8797H18.0111V28.3492H19.547V29.8797Z" fill="white"/>
<path d="M28.634 46.1616V38.3867H19.3099V46.1616H28.634Z" fill="#BADBED"/>
<path opacity="0.13" d="M28.6266 45.0634V46.1606H19.3025V38.3857H20.2811C19.9005 39.0765 19.6967 39.8622 19.6967 40.6884C19.6967 43.5735 22.2791 45.9168 25.4597 45.9168C26.6422 45.9168 27.7159 45.6052 28.6266 45.0634Z" fill="#121420"/>
<g opacity="0.57">
<path opacity="0.35" d="M29.473 39.0434L28.8748 38.3955L20.1727 46.3746L20.7709 47.0225L29.473 39.0434Z" fill="white"/>
<path opacity="0.35" d="M27.9098 37.9131L27.5969 37.5742L18.8949 45.5533L19.2078 45.8922L27.9098 37.9131Z" fill="white"/>
<path opacity="0.35" d="M30.5685 40.7764L30.2556 40.4375L21.5535 48.4165L21.8665 48.7554L30.5685 40.7764Z" fill="white"/>
<path opacity="0.35" d="M26.4401 37.8237L26.2837 37.6543L17.5816 45.6334L17.7381 45.8028L26.4401 37.8237Z" fill="white"/>
<path opacity="0.35" d="M25.7778 36.7098L24.7195 35.5635L16.0174 43.5425L17.0758 44.6888L25.7778 36.7098Z" fill="white"/>
</g>
<path opacity="0.41" d="M28.6266 38.7108H24.481V38.9005V46.1606H24.182V38.7108H19.6287V46.1606H19.3025V38.3857H28.6266V38.7108Z" fill="#121420"/>
<path d="M18.8674 37.9521V46.6074H29.0614V37.9521H18.8674ZM19.3024 46.1604V38.3856H23.747V46.1604H19.3024ZM28.6265 46.1604H24.1819V38.3856H28.6265V46.1604Z" fill="white"/>
<path d="M29.3604 45.4824H18.5684V46.6744H29.3604V45.4824Z" fill="white"/>
<path opacity="0.15" d="M29.3604 46.2949H18.5684V46.5929H29.3604V46.2949Z" fill="#121420"/>
<path d="M30.2304 46.5938H17.7122V48.0431H30.2304V46.5938Z" fill="white"/>
<path opacity="0.15" d="M30.2304 47.4736H17.7122V48.0425H30.2304V47.4736Z" fill="#121420"/>
<path d="M44.5071 46.196H34.9847C34.8642 45.8357 34.8401 45.4152 34.9606 45.0429C35.2258 44.226 36.1177 43.8657 36.7084 44.3221C36.5878 43.7336 36.7928 43.0609 37.1905 42.7005C37.5883 42.3522 38.1548 42.3402 38.5646 42.6765C38.649 42.7486 38.7213 42.8206 38.8178 42.8206C38.9383 42.8206 39.0227 42.6885 39.1071 42.5924C39.6013 41.9918 40.5535 41.9558 40.891 42.7005C40.9392 42.8206 40.9874 42.9528 41.0839 43.0128C41.1682 43.0609 41.2647 43.0369 41.3611 43.0128C41.8191 42.8927 42.3254 42.8206 42.7232 43.133C43.2174 43.5053 43.3741 44.3221 43.4343 45.0429C43.4464 45.163 43.4584 45.2951 43.5428 45.3672C43.591 45.4032 43.6392 45.4032 43.6995 45.4152C44.0491 45.4633 44.3745 45.7756 44.5071 46.196Z" fill="#8BAA3D"/>
<path d="M14.8792 46.3761H4.74203C4.60944 45.9798 4.58533 45.5233 4.70587 45.1269C4.9831 44.25 5.93534 43.8416 6.56213 44.3461C6.44159 43.6975 6.64651 42.9647 7.08044 42.5924C7.50232 42.208 8.11706 42.196 8.53893 42.5683C8.62331 42.6404 8.70768 42.7365 8.81617 42.7245C8.9367 42.7245 9.04519 42.5924 9.12956 42.4722C9.65992 41.8236 10.6724 41.7755 11.022 42.5924C11.0823 42.7245 11.1184 42.8686 11.2269 42.9287C11.3113 42.9888 11.4198 42.9527 11.5162 42.9287C11.9983 42.7966 12.5408 42.7245 12.9747 43.0608C13.505 43.4692 13.6738 44.3461 13.7341 45.1389C13.7461 45.271 13.7582 45.4152 13.8426 45.4873C13.8908 45.5233 13.951 45.5233 14.0113 45.5353C14.397 45.5713 14.7466 45.9197 14.8792 46.3761Z" fill="#8BAA3D"/>
<path d="M17.6272 43.9512H17.2415V46.2695H17.6272V43.9512Z" fill="#5E1726"/>
<path d="M17.3862 44.2151C18.3315 44.2151 19.0978 43.4514 19.0978 42.5094C19.0978 41.5674 18.3315 40.8037 17.3862 40.8037C16.4409 40.8037 15.6746 41.5674 15.6746 42.5094C15.6746 43.4514 16.4409 44.2151 17.3862 44.2151Z" fill="#8BAA3D"/>
<path opacity="0.09" d="M19.0863 42.5089C19.0863 43.4579 18.3149 44.2146 17.3747 44.2146C16.5671 44.2146 15.88 43.6501 15.6992 42.9053C16.0006 43.1696 16.3863 43.3257 16.8202 43.3257C17.7725 43.3257 18.5318 42.557 18.5318 41.62C18.5318 41.4879 18.5198 41.3438 18.4836 41.2236C18.8573 41.5239 19.0863 41.9804 19.0863 42.5089Z" fill="#121420"/>
<path d="M18.0369 45.7168H16.8315V46.894H18.0369V45.7168Z" fill="#DB3552"/>
<path d="M18.2178 45.5488H16.6628V45.8852H18.2178V45.5488Z" fill="#DB3552"/>
<path opacity="0.09" d="M18.0369 45.8604V46.8934H16.8315V46.5811C16.9521 46.6531 17.0726 46.7012 17.2173 46.7012C17.615 46.7132 17.9525 46.3528 18.0369 45.8604Z" fill="#121420"/>
<path d="M32.417 43.9502H32.0312V46.2685H32.417V43.9502Z" fill="#5E1726"/>
<path d="M32.176 44.2141C33.1213 44.2141 33.8876 43.4505 33.8876 42.5084C33.8876 41.5664 33.1213 40.8027 32.176 40.8027C31.2307 40.8027 30.4644 41.5664 30.4644 42.5084C30.4644 43.4505 31.2307 44.2141 32.176 44.2141Z" fill="#8BAA3D"/>
<path opacity="0.09" d="M33.8761 42.5079C33.8761 43.4569 33.1047 44.2136 32.1645 44.2136C31.3569 44.2136 30.6698 43.6491 30.489 42.9043C30.7904 43.1686 31.1761 43.3248 31.61 43.3248C32.5622 43.3248 33.3216 42.556 33.3216 41.6191C33.3216 41.4869 33.3096 41.3428 33.2734 41.2227C33.635 41.523 33.8761 41.9794 33.8761 42.5079Z" fill="#121420"/>
<path d="M32.8267 45.7148H31.6213V46.892H32.8267V45.7148Z" fill="#DB3552"/>
<path d="M33.0076 45.5479H31.4526V45.8842H33.0076V45.5479Z" fill="#DB3552"/>
<path opacity="0.09" d="M32.8267 45.8594V46.8924H31.6213V46.5801C31.7419 46.6522 31.8624 46.7002 32.0071 46.7002C32.4048 46.7122 32.7423 46.3519 32.8267 45.8594Z" fill="#121420"/>
</g>
</svg>
