<svg width="48" height="48" viewBox="0 0 48 48" fill="none" xmlns="http://www.w3.org/2000/svg">
<circle cx="24" cy="24" r="24" fill="#DCF5EE"/>
<mask id="mask0_6_1736" style="mask-type:alpha" maskUnits="userSpaceOnUse" x="0" y="0" width="48" height="48">
<circle cx="24" cy="24" r="24" fill="#E2F5F0"/>
</mask>
<g mask="url(#mask0_6_1736)">
<path d="M-1.12207 40.5605V44.1728C-1.12207 45.6229 0.0534509 46.7982 1.50337 46.7982H5.60919C7.05924 46.7982 8.23463 45.6227 8.23463 44.1728V40.5605H-1.12207Z" fill="#64798A"/>
<path d="M27.0967 0H6.03947C1.09042 0 -2.92139 4.01193 -2.92139 8.96086V42.1208H34.745V7.6482C34.7449 3.42424 31.3208 0 27.0967 0Z" fill="#44C4A1"/>
<path d="M25.8667 3.97363H7.27295V7.69244H25.8667V3.97363Z" fill="#D5D6DB"/>
<path d="M6.07479 37.484C8.06244 37.484 9.67375 35.8727 9.67375 33.8851C9.67375 31.8974 8.06244 30.2861 6.07479 30.2861C4.08714 30.2861 2.47583 31.8974 2.47583 33.8851C2.47583 35.8727 4.08714 37.484 6.07479 37.484Z" fill="#FCD462"/>
<path d="M36.886 14.8232H34.7449V25.3795H36.886C38.1547 25.3795 39.1832 24.351 39.1832 23.0822V17.1205C39.1834 15.8519 38.1549 14.8232 36.886 14.8232Z" fill="#3EA69B"/>
<path d="M30.1842 12.6123H2.47632V27.6066H30.1842V12.6123Z" fill="#F6C358"/>
<path d="M2.47656 27.6059V12.6113H30.1866L2.47656 27.6059Z" fill="#FCD462"/>
<path d="M22.0295 43.6816V45.5369C22.0295 46.8973 23.1324 48 24.4928 48H26.2841C27.6445 48 28.7473 46.8972 28.7473 45.5369V43.6816H22.0295Z" fill="#64798A"/>
<path d="M38.4236 43.6816V45.5369C38.4236 46.8973 39.5265 48 40.8868 48H42.6781C44.0385 48 45.1414 46.8972 45.1414 45.5369V43.6816H38.4236Z" fill="#64798A"/>
<path d="M48.3454 34.1436H45.6011V36.6627H48.3454C48.8503 36.6627 49.2596 36.2534 49.2596 35.7485V35.0577C49.2598 34.5528 48.8505 34.1436 48.3454 34.1436Z" fill="#D15241"/>
<path d="M19.285 34.1437C18.7801 34.1437 18.3708 34.553 18.3708 35.0579V35.7485C18.3708 36.2534 18.7801 36.6627 19.285 36.6627H22.0296V34.1436H19.285V34.1437Z" fill="#D15241"/>
<path d="M38.8946 25.9268H28.676C24.7403 25.9268 21.5498 29.1173 21.5498 33.0529V44.4H46.0209V33.0529C46.0209 29.1172 42.8305 25.9268 38.8946 25.9268Z" fill="#E56353"/>
<path d="M24.2685 35.1628H43.3416C43.3416 35.1628 44.1198 31.0495 40.4321 27.9599C40.1488 27.7226 39.7815 27.6055 39.4119 27.6055H28.3876C27.9538 27.6055 27.5416 27.777 27.2329 28.0817C26.1145 29.1861 23.6112 32.0643 24.2685 35.1628Z" fill="#2D93BA"/>
<path d="M25.8676 3.97363H16.3311V7.69244H25.8676V3.97363Z" fill="#E1E6E9"/>
<path d="M24.2685 35.1628C23.6112 32.0641 26.1145 29.1861 27.2331 28.0817C27.5417 27.777 27.9541 27.6055 28.3877 27.6055H39.4121C39.7817 27.6055 40.1489 27.7226 40.4323 27.9599L24.2685 35.1628Z" fill="#27A2DB"/>
<path d="M27.0598 41.33C28.2129 41.33 29.1476 40.3952 29.1476 39.2421C29.1476 38.0891 28.2129 37.1543 27.0598 37.1543C25.9067 37.1543 24.9719 38.0891 24.9719 39.2421C24.9719 40.3952 25.9067 41.33 27.0598 41.33Z" fill="#FCD462"/>
<path d="M39.6958 41.3281C40.8489 41.3281 41.7836 40.3933 41.7836 39.2402C41.7836 38.0871 40.8489 37.1523 39.6958 37.1523C38.5427 37.1523 37.6079 38.0871 37.6079 39.2402C37.6079 40.3933 38.5427 41.3281 39.6958 41.3281Z" fill="#FCD462"/>
</g>
</svg>
