<svg width="48" height="48" viewBox="0 0 48 48" fill="none" xmlns="http://www.w3.org/2000/svg">
<circle cx="24" cy="24" r="24" fill="#FFDFE3"/>
<mask id="mask0_6_1207" style="mask-type:alpha" maskUnits="userSpaceOnUse" x="0" y="0" width="48" height="48">
<circle cx="24" cy="24" r="24" fill="#A5A7AC"/>
</mask>
<g mask="url(#mask0_6_1207)">
<path fill-rule="evenodd" clip-rule="evenodd" d="M48.6635 54.2267V11.1299H0V54.2267C0 54.6119 0.222889 54.927 0.495393 54.927H48.1682C48.4406 54.927 48.6635 54.6118 48.6635 54.2267Z" fill="#EFF6FF"/>
<path fill-rule="evenodd" clip-rule="evenodd" d="M30.5094 36.7454L13.6118 23.1904L12.7698 26.1045L24.1011 40.2462L30.5094 36.7454Z" fill="#FF455B"/>
<path fill-rule="evenodd" clip-rule="evenodd" d="M24.1011 40.2452L12.7698 26.1035L11.4358 30.7208L20.6005 42.1564L24.1011 40.2452Z" fill="#CCF49F"/>
<path fill-rule="evenodd" clip-rule="evenodd" d="M20.6004 42.1563L11.4358 30.7207L9.5498 37.2522L13.782 42.5317L15.6491 44.8591L19.9129 42.5317L20.6004 42.1563Z" fill="#FF455B"/>
<path fill-rule="evenodd" clip-rule="evenodd" d="M13.7821 42.5325L9.5499 37.2529L8.21582 41.867L8.74884 42.5325L12.1485 46.7712L15.6492 44.8599L13.7821 42.5325Z" fill="#CCF49F"/>
<path fill-rule="evenodd" clip-rule="evenodd" d="M12.1485 46.7713L8.7488 42.5326L8.21579 41.8672L8.02657 42.5326L6.46227 47.9446C6.24466 48.9538 6.34563 49.4079 6.83753 49.4175H6.86593C7.10876 49.4143 7.44301 49.3039 7.87824 49.1052L12.1485 46.7713Z" fill="#FF455B"/>
<path fill-rule="evenodd" clip-rule="evenodd" d="M-1.57007 12.0857H48.0001V7.05859H15.2581H-1.57007V12.0857Z" fill="#9FD4FE"/>
<path fill-rule="evenodd" clip-rule="evenodd" d="M15.258 8.16667H47.9999V-0.339127C47.9999 -0.616708 47.7729 -0.84375 47.4953 -0.84375C31.3072 -0.84375 15.1192 -0.84375 -1.06569 -0.84375C-1.34327 -0.84375 -1.57031 -0.616708 -1.57031 -0.339127V8.16667H15.258Z" fill="#FF455B"/>
<path d="M11.17 -2.85766V-0.84279H9.50114V-2.85766C9.50114 -4.06369 8.51876 -5.04498 7.31043 -5.04498C6.1044 -5.04498 5.1242 -4.06369 5.1242 -2.85766V1.17219C5.1242 2.37822 6.1044 3.35951 7.31043 3.35951C7.77098 3.35951 8.14481 3.73335 8.14481 4.1939C8.14481 4.65445 7.77098 5.02829 7.31043 5.02829C5.18428 5.02829 3.45532 3.29823 3.45532 1.17208V-2.85766C3.45532 -4.98381 5.18428 -6.71387 7.31043 -6.71387C9.43876 -6.71387 11.17 -4.98381 11.17 -2.85766Z" fill="#14C7FF"/>
<path d="M22.0345 -2.85766V-0.84279H20.3657V-2.85766C20.3657 -4.06369 19.3833 -5.04498 18.1749 -5.04498C16.97 -5.04498 15.9887 -4.06369 15.9887 -2.85766V1.17219C15.9887 2.37822 16.97 3.35951 18.1749 3.35951C18.6367 3.35951 19.0093 3.73335 19.0093 4.1939C19.0093 4.65445 18.6366 5.02829 18.1749 5.02829C16.0488 5.02829 14.3198 3.29823 14.3198 1.17208V-2.85766C14.3198 -4.98381 16.0489 -6.71387 18.175 -6.71387C20.3034 -6.71387 22.0345 -4.98381 22.0345 -2.85766Z" fill="#14C7FF"/>
<path d="M32.899 -2.85766V-0.84279H31.2301V-2.85766C31.2301 -4.06369 30.2478 -5.04498 29.0394 -5.04498C27.8345 -5.04498 26.8532 -4.06369 26.8532 -2.85766V1.17219C26.8532 2.37822 27.8345 3.35951 29.0394 3.35951C29.5012 3.35951 29.8738 3.73335 29.8738 4.1939C29.8738 4.65445 29.5011 5.02829 29.0394 5.02829C26.9144 5.02829 25.1843 3.29823 25.1843 1.17208V-2.85766C25.1843 -4.98381 26.9144 -6.71387 29.0394 -6.71387C31.1679 -6.71387 32.899 -4.98381 32.899 -2.85766Z" fill="#14C7FF"/>
<path d="M43.7634 -2.85766V-0.84279H42.0945V-2.85766C42.0945 -4.06369 41.1133 -5.04498 39.9072 -5.04498C38.7001 -5.04498 37.7176 -4.06369 37.7176 -2.85766V1.17219C37.7176 2.37822 38.7 3.35951 39.9072 3.35951C40.369 3.35951 40.7417 3.73335 40.7417 4.1939C40.7417 4.65445 40.369 5.02829 39.9072 5.02829C37.78 5.02829 36.0488 3.29823 36.0488 1.17208V-2.85766C36.0487 -4.98381 37.7799 -6.71387 39.9071 -6.71387C42.0334 -6.71387 43.7634 -4.98381 43.7634 -2.85766Z" fill="#14C7FF"/>
<path d="M26.8317 24.0082C26.6486 24.0082 26.4643 23.9482 26.3103 23.8248C25.9508 23.5365 25.8929 23.0114 26.1813 22.6517L29.2909 18.7725C29.5791 18.4129 30.1039 18.3551 30.4639 18.6434C30.8234 18.9317 30.8813 19.4568 30.5929 19.8165L27.4833 23.6957C27.3184 23.9013 27.0761 24.0082 26.8317 24.0082Z" fill="#FF455B"/>
<path d="M20.862 25.1811C20.6672 25.1811 20.4715 25.1133 20.3133 24.975C19.9662 24.6719 19.9307 24.1447 20.234 23.7977C21.3052 22.5717 22.5257 21.0781 23.4561 19.2962C23.6693 18.8876 24.1734 18.7292 24.582 18.9426C24.9905 19.1559 25.1488 19.66 24.9355 20.0685C23.9241 22.0058 22.6267 23.5959 21.4908 24.8958C21.3257 25.0845 21.0944 25.1811 20.862 25.1811Z" fill="#9FD4FE"/>
<path d="M26.983 30.0902C26.8113 30.0902 26.6382 30.0373 26.4894 29.9279C26.118 29.6548 26.0384 29.1326 26.3114 28.7614C27.3364 27.3672 28.6089 25.7532 30.2756 24.3528C30.6285 24.0564 31.1548 24.102 31.4512 24.4549C31.7478 24.8078 31.702 25.3341 31.3492 25.6306C29.8171 26.9178 28.6225 28.4353 27.656 29.7499C27.4923 29.9722 27.2394 30.0902 26.983 30.0902Z" fill="#9FD4FE"/>
<path d="M30.8335 33.1803C30.6664 33.1803 30.4978 33.1302 30.3511 33.0262C29.9754 32.7594 29.8871 32.2384 30.1539 31.8627C31.7141 29.6659 34.0246 27.1195 38.0766 26.9268C38.5353 26.9044 38.9279 27.2603 38.9497 27.7206C38.9716 28.1809 38.6162 28.5719 38.1559 28.5937C34.8422 28.7513 32.9391 30.8231 31.5146 32.829C31.3518 33.0581 31.0946 33.1803 30.8335 33.1803Z" fill="#FF455B"/>
<path d="M18.168 21.5953C18.0232 21.5953 17.8764 21.5576 17.7429 21.4783C17.3466 21.243 17.216 20.7311 17.4513 20.3349C17.9207 19.5439 18.379 18.5419 18.2165 17.1079C18.1645 16.6501 18.4937 16.2368 18.9518 16.1849C19.408 16.1337 19.8228 16.4622 19.8747 16.9202C20.0941 18.8565 19.4618 20.2174 18.8863 21.1868C18.7304 21.4494 18.4528 21.5953 18.168 21.5953Z" fill="#FF455B"/>
<path fill-rule="evenodd" clip-rule="evenodd" d="M7.40837 44.6683L6.46227 47.9452C6.24466 48.9544 6.34563 49.4085 6.83753 49.418H6.86593C7.10876 49.4149 7.44302 49.3045 7.87824 49.1058L12.1484 46.772L9.53079 43.5078L7.40837 44.6683Z" fill="#FF6D75"/>
<path fill-rule="evenodd" clip-rule="evenodd" d="M9.53076 43.506L12.1484 46.7702L15.6491 44.8589L13.782 42.5315L13.0314 41.5947L11.3189 42.5315L9.53076 43.506Z" fill="#B3E59F"/>
<path fill-rule="evenodd" clip-rule="evenodd" d="M13.0317 41.5945L13.7823 42.5313L15.6494 44.8587L19.9132 42.5313L20.6006 42.1559L17.983 38.8887L13.0317 41.5945Z" fill="#FF6D75"/>
<path fill-rule="evenodd" clip-rule="evenodd" d="M17.9829 38.8888L20.6005 42.1561L24.1012 40.2449L21.4836 36.9775L17.9829 38.8888Z" fill="#B3E59F"/>
<path fill-rule="evenodd" clip-rule="evenodd" d="M21.4834 36.9768L24.101 40.2442L30.5093 36.7434L27.0245 33.9492L21.4834 36.9768Z" fill="#FF6D75"/>
<path fill-rule="evenodd" clip-rule="evenodd" d="M43.408 -0.84375V7.05656V8.16667H47.9998V7.05656V-0.339127C47.9998 -0.616708 47.7727 -0.84375 47.4951 -0.84375H44.2438H43.408Z" fill="#FF6D75"/>
<path fill-rule="evenodd" clip-rule="evenodd" d="M43.408 8.16797V10.9717V12.085H47.9998V10.9717V8.16797H43.408Z" fill="#85BEEF"/>
<path fill-rule="evenodd" clip-rule="evenodd" d="M42.606 12.752V48.4385H44.5913H46.9375C47.2316 48.4385 47.4723 48.1724 47.4723 47.847V12.752H42.606Z" fill="#D9EEFF"/>
<path fill-rule="evenodd" clip-rule="evenodd" d="M-1.57007 12.085H48.0001V15.4848H-1.57007V12.085Z" fill="#D9EEFF"/>
<path d="M32.0448 38.8089C31.8616 38.8089 31.6772 38.7489 31.5233 38.6254L11.5538 22.6104C11.1944 22.3221 11.1366 21.7969 11.425 21.4373C11.7134 21.0781 12.2386 21.0201 12.5981 21.3085L32.5674 37.3236C32.9268 37.6118 32.9846 38.137 32.6962 38.4966C32.5314 38.702 32.2892 38.8089 32.0448 38.8089Z" fill="#14C7FF"/>
</g>
</svg>
