<svg width="13" height="15" viewBox="0 0 13 15" fill="none" xmlns="http://www.w3.org/2000/svg">
<path d="M6.39829 1.49074e-05C8.0935 0.0075308 9.71369 0.682614 10.8988 1.86776C12.0915 3.06041 12.7591 4.6731 12.7516 6.34581V6.38332C12.7066 8.65609 11.4314 10.7489 9.84121 12.3841C8.9411 13.3067 7.94348 14.1243 6.85584 14.8144C6.56331 15.0619 6.13575 15.0619 5.84322 14.8144C4.23052 13.7642 2.80534 12.4441 1.6502 10.9064C0.637578 9.57121 0.0600074 7.96601 0 6.2933C0.0150018 2.80538 2.88035 -0.00747105 6.39829 1.49074e-05ZM6.39829 4.44808C5.28065 4.44808 4.38054 5.34069 4.38054 6.45082C4.38054 7.54671 5.26565 8.43107 6.37578 8.44607H6.39829C6.93085 8.44607 7.44092 8.24354 7.81596 7.876C8.20601 7.49345 8.42429 6.98414 8.42429 6.45082C8.42429 5.34069 7.51592 4.44808 6.39829 4.44808Z" fill="#FF455B"/>
</svg>
