<svg width="24" height="24" viewBox="0 0 24 24" fill="none" xmlns="http://www.w3.org/2000/svg">
<circle cx="12" cy="12" r="12" fill="#FF455B"/>
<path d="M12 0C5.38327 0 0 5.38327 0 12C0 18.6167 5.38327 24 12 24C18.6167 24 24 18.6167 24 12C24 5.38327 18.6167 0 12 0ZM16.309 14.5858C15.8187 15.1835 14.0192 16.8058 12 18.2498C9.98077 16.8075 8.18135 15.1835 7.69096 14.5858C6.53712 13.1798 5.98442 11.7358 6.00058 10.1723C6.01846 8.38038 7.45558 6.9225 9.20423 6.9225C10.4735 6.9225 11.3562 7.63846 11.869 8.23558L12 8.39423L12.131 8.23558C12.6346 7.63212 13.5242 6.92308 14.7958 6.92308C16.5444 6.92308 17.9815 8.38096 17.9994 10.1729C18.0156 11.7358 17.4623 13.1798 16.309 14.5858Z" fill="white"/>
</svg>
